<?xml version="1.0" standalone="no"?>
<!DOCTYPE svg PUBLIC "-//W3C//DTD SVG 20010904//EN"
 "http://www.w3.org/TR/2001/REC-SVG-20010904/DTD/svg10.dtd">
<svg version="1.0" xmlns="http://www.w3.org/2000/svg"
 width="1024.000000pt" height="1024.000000pt" viewBox="0 0 1024.000000 1024.000000"
 preserveAspectRatio="xMidYMid meet">

<g transform="translate(0.000000,1024.000000) scale(0.100000,-0.100000)"
fill="#000000" stroke="none">
<path d="M0 5120 l0 -5120 5120 0 5120 0 0 5120 0 5120 -5120 0 -5120 0 0
-5120z m5171 1635 c60 -159 154 -414 210 -565 129 -348 137 -366 195 -391 24
-11 44 -26 44 -34 0 -13 -32 -15 -205 -15 -198 0 -205 1 -205 20 0 15 7 20 24
20 35 0 72 16 79 34 7 17 -8 64 -82 266 l-49 135 -235 3 c-217 2 -235 1 -242
-15 -67 -169 -125 -339 -125 -363 0 -30 17 -44 83 -64 10 -3 17 -12 14 -19 -5
-17 -318 -18 -324 0 -3 7 12 16 36 23 71 19 75 26 226 415 47 121 137 351 201
511 l114 291 53 21 c28 12 58 20 66 19 9 -1 56 -114 122 -292z m1514 266 c126
-31 155 -46 155 -80 0 -15 3 -69 6 -119 7 -86 6 -92 -12 -92 -13 0 -31 21 -54
62 -40 70 -106 132 -169 161 -57 25 -189 34 -273 18 -87 -17 -177 -62 -240
-120 -113 -104 -159 -231 -161 -446 -1 -147 12 -214 68 -330 58 -122 190 -225
323 -254 121 -25 261 -7 342 44 46 29 102 93 141 162 56 97 74 83 59 -43 -18
-160 -13 -149 -83 -178 -114 -48 -209 -66 -348 -66 -162 0 -249 18 -365 74
-155 77 -259 201 -310 371 -25 82 -26 284 -1 375 55 206 208 374 409 446 133
48 353 55 513 15z m-4075 -23 c160 -42 250 -143 250 -279 0 -59 -24 -132 -57
-175 -29 -38 -117 -100 -155 -110 -36 -8 -28 -21 13 -22 46 -1 170 -65 213
-109 131 -135 100 -366 -64 -467 -56 -36 -140 -65 -215 -76 -96 -14 -607 -9
-612 6 -2 7 17 17 46 25 36 9 52 19 61 37 15 33 15 1015 0 1071 -14 52 -30 68
-80 76 -37 6 -50 22 -32 39 13 14 572 0 632 -16z m1055 3 c0 -8 -20 -20 -47
-28 -29 -8 -53 -22 -60 -36 -10 -17 -14 -134 -16 -492 -3 -489 3 -589 35 -613
14 -10 56 -13 183 -10 141 4 172 7 211 25 61 28 111 79 140 142 30 67 55 67
51 1 -3 -50 -20 -183 -28 -218 l-4 -22 -448 2 c-389 3 -447 5 -447 18 0 11 15
17 49 21 91 10 86 -25 86 575 0 592 1 585 -67 603 -21 6 -46 11 -55 11 -18 0
-24 20 -11 34 4 3 102 5 217 4 173 -3 211 -6 211 -17z m3910 -1 c0 -9 -19 -20
-48 -28 -76 -21 -78 -30 -75 -313 l3 -242 196 191 c213 208 279 284 279 325 0
31 -7 36 -62 45 -28 5 -43 13 -43 22 0 13 33 15 208 18 198 2 207 2 207 -17 0
-14 -12 -22 -47 -30 -26 -7 -64 -22 -84 -34 -20 -12 -136 -119 -257 -238
l-221 -215 57 -66 c31 -35 148 -168 258 -294 268 -306 280 -318 337 -335 81
-23 50 -34 -110 -37 l-151 -3 -98 117 c-128 152 -248 296 -353 423 -80 98 -84
101 -102 85 -18 -16 -19 -34 -18 -258 1 -133 4 -252 8 -266 8 -30 62 -60 109
-60 25 0 32 -4 32 -20 0 -20 -5 -20 -222 -18 -188 3 -223 5 -223 18 0 8 14 17
32 21 42 8 63 26 80 67 11 28 14 124 12 520 -1 268 -6 504 -10 524 -11 43 -41
68 -84 68 -39 0 -60 14 -52 34 6 15 31 16 224 14 184 -3 218 -5 218 -18z
m-3629 -1730 c172 -44 336 -172 404 -315 89 -189 87 -437 -3 -624 -154 -318
-645 -440 -990 -247 -79 44 -182 151 -220 230 -119 243 -84 577 80 762 68 76
203 160 307 189 131 38 286 40 422 5z m2854 5 c36 -8 91 -25 122 -36 l57 -21
5 -51 c13 -130 15 -173 7 -186 -10 -16 -15 -11 -70 74 -76 116 -164 165 -306
173 -162 8 -302 -43 -405 -147 -61 -61 -98 -129 -126 -231 -25 -92 -25 -320 0
-410 67 -243 239 -372 496 -372 80 -1 204 22 223 41 4 4 8 95 8 202 l0 194
-26 23 c-14 12 -37 22 -49 22 -52 0 -86 12 -86 31 0 19 10 19 233 17 196 -3
232 -5 232 -18 0 -8 -19 -22 -44 -31 -28 -10 -49 -26 -59 -44 -19 -36 -28
-261 -15 -357 l9 -67 -45 -20 c-67 -28 -114 -40 -226 -56 -126 -18 -217 -19
-325 0 -258 43 -422 167 -507 382 -25 64 -27 79 -28 228 0 140 3 169 23 230
30 93 69 160 137 233 96 104 228 175 385 208 81 17 287 11 380 -11z m1425 -57
c12 -130 11 -223 -4 -223 -15 0 -17 2 -55 87 -45 95 -133 128 -353 128 -164 0
-154 18 -157 -279 -2 -127 0 -235 4 -241 5 -8 53 -10 158 -8 144 3 152 4 177
28 14 14 32 44 38 69 12 46 33 63 48 40 8 -13 2 -298 -7 -328 -6 -20 -31 4
-39 39 -3 16 -17 40 -30 54 -24 26 -25 26 -185 26 -159 0 -160 0 -161 -22 0
-13 0 -122 0 -243 2 -283 -6 -269 152 -273 63 -2 144 2 180 8 118 20 202 87
240 193 13 37 33 49 41 25 3 -7 -1 -67 -8 -133 -7 -66 -13 -128 -13 -137 -1
-17 -29 -18 -441 -18 -416 0 -440 1 -440 18 0 13 13 21 45 30 34 9 48 19 55
38 6 15 10 228 10 535 0 580 2 567 -72 591 -24 8 -44 22 -46 31 -3 15 32 17
420 20 233 1 426 3 430 5 3 1 9 -26 13 -60z m-5379 27 c2 -11 5 -76 6 -145 3
-104 1 -125 -12 -125 -8 0 -19 18 -27 43 -25 89 -82 147 -169 171 -61 18 -272
25 -321 12 l-43 -12 -1 -127 c-1 -131 0 -344 1 -374 0 -16 14 -18 155 -18 91
0 164 4 178 11 30 13 44 38 61 104 8 32 18 51 29 53 15 3 17 -13 17 -176 0
-151 -2 -181 -15 -186 -10 -4 -20 6 -30 31 -8 19 -15 39 -15 42 0 4 -11 18
-25 31 -25 23 -31 24 -188 24 l-162 0 -5 -53 c-3 -28 -5 -135 -4 -236 1 -220
7 -240 71 -258 30 -8 43 -16 41 -27 -3 -13 -33 -15 -206 -18 -197 -2 -202 -2
-202 18 0 13 7 20 20 20 39 0 78 28 90 65 15 45 16 1008 1 1046 -13 36 -48 59
-88 59 -34 0 -48 12 -39 36 5 12 67 14 442 12 428 -3 437 -3 440 -23z m2336
14 c57 -6 127 -20 156 -31 158 -59 225 -193 177 -356 -23 -75 -97 -152 -195
-201 l-78 -39 33 -60 c42 -74 170 -263 243 -357 85 -109 123 -144 164 -156 28
-7 38 -15 38 -29 0 -19 -7 -20 -127 -20 l-128 1 -102 152 c-108 163 -165 252
-228 359 -22 37 -47 70 -55 72 -8 3 -46 6 -85 8 l-70 3 2 -243 c1 -203 4 -247
17 -267 16 -24 69 -45 114 -45 17 0 23 -5 20 -17 -3 -17 -22 -18 -233 -18
-211 0 -230 1 -233 18 -3 13 3 17 28 17 43 0 89 26 102 58 8 18 12 189 13 529
3 604 12 561 -117 588 -29 6 -38 29 -15 38 24 10 458 7 559 -4z m-2653 -1825
c15 -9 34 -27 44 -40 18 -24 18 -25 -5 -44 -23 -18 -23 -18 -48 4 -77 71 -200
14 -200 -92 0 -85 74 -143 155 -121 19 5 42 20 53 33 17 22 20 23 45 10 15 -8
27 -21 27 -29 0 -43 -128 -103 -194 -91 -52 10 -114 57 -136 102 -25 50 -26
133 -4 180 19 39 86 101 118 108 35 7 118 -4 145 -20z m1874 1 l29 -19 -23
-17 c-17 -13 -28 -15 -42 -8 -27 15 -88 7 -101 -13 -19 -31 5 -52 80 -70 85
-22 116 -44 128 -91 22 -84 -44 -152 -145 -149 -53 1 -93 18 -127 54 -22 24
-22 25 -3 42 19 17 21 17 50 -3 16 -12 49 -24 73 -27 37 -5 49 -2 71 17 24 22
26 26 14 49 -12 24 -43 39 -122 60 -56 15 -77 34 -85 77 -8 47 10 86 48 108
35 20 118 15 155 -10z m688 -280 c-35 -79 -145 -109 -237 -65 -71 35 -78 54
-82 218 l-4 142 30 0 30 0 4 -128 c4 -149 14 -174 77 -193 32 -9 47 -9 71 1
55 23 62 45 61 189 l-1 130 33 3 32 3 3 -128 c2 -109 0 -134 -17 -172z m1119
275 c0 -28 -2 -30 -39 -30 -73 0 -71 6 -71 -171 l0 -159 -33 0 -33 0 2 108 c0
59 -1 133 -4 165 l-4 57 -54 0 c-51 0 -54 2 -54 24 0 29 4 30 173 34 l117 2 0
-30z m853 -69 c45 -53 92 -108 103 -123 10 -15 22 -28 27 -28 4 0 7 56 7 125
l0 125 30 0 c26 0 30 -4 31 -27 0 -35 0 -322 0 -344 -1 -11 -10 -16 -26 -15
-25 1 -96 80 -192 213 -21 29 -41 52 -45 53 -5 0 -8 -58 -8 -130 l0 -130 -30
0 -30 0 0 189 0 189 24 0 c19 0 45 -24 109 -97z m811 75 l28 -18 -26 -18 c-25
-16 -30 -16 -70 -2 -58 21 -115 5 -148 -41 -34 -48 -32 -132 5 -181 62 -81
194 -56 213 42 6 30 5 32 -22 32 -53 0 -74 11 -74 37 0 23 1 24 78 21 l77 -3
0 -67 c0 -80 -18 -111 -86 -146 -58 -31 -137 -26 -197 12 -117 74 -110 281 11
337 55 25 170 22 211 -5z m-4707 -22 c74 -60 93 -186 40 -266 -52 -77 -173
-104 -258 -57 -49 28 -97 112 -77 136 7 9 7 13 -1 13 -6 0 -11 16 -11 37 0 47
40 116 88 148 33 23 45 26 109 23 62 -3 76 -7 110 -34z m500 -56 c43 -51 88
-105 99 -119 10 -14 23 -26 28 -27 4 -1 8 52 7 118 l-2 120 35 0 36 0 0 -190
0 -190 -27 1 c-23 0 -44 20 -121 117 -51 64 -99 126 -107 137 -13 18 -14 4
-15 -117 l0 -138 -35 0 -34 0 1 190 1 190 27 0 c22 0 43 -19 107 -92z m1838
-65 l0 -158 98 -3 97 -3 0 -28 0 -28 -130 -2 -130 -2 0 191 0 190 33 0 32 0 0
-157z m1090 -28 c0 -166 -2 -185 -17 -185 -9 0 -23 -3 -32 -6 -14 -5 -16 15
-16 185 l0 191 33 0 32 0 0 -185z"/>
<path d="M4950 6848 c0 -4 -169 -442 -207 -535 -4 -10 41 -13 205 -13 l209 0
-97 270 c-83 234 -110 301 -110 278z"/>
<path d="M2279 6894 c-1 -33 -2 -148 -4 -258 l-2 -199 116 5 c77 4 130 11 156
22 93 39 131 115 123 247 -6 104 -39 161 -118 203 -48 26 -67 30 -162 34
l-108 5 -1 -59z"/>
<path d="M2279 6373 c-5 -44 3 -457 10 -474 16 -42 55 -69 113 -78 57 -10 163
-1 209 17 46 18 96 70 120 124 32 76 32 207 -2 275 -29 58 -91 107 -161 128
-54 16 -287 22 -289 8z"/>
<path d="M2210 6336 c0 -2 7 -7 16 -10 8 -3 12 -2 9 4 -6 10 -25 14 -25 6z"/>
<path d="M3630 5219 c-105 -21 -218 -102 -277 -201 -53 -88 -75 -190 -77 -353
-2 -293 81 -473 257 -560 151 -74 317 -69 457 15 105 61 174 170 206 322 12
56 15 107 10 218 -6 166 -14 205 -61 306 -92 200 -290 297 -515 253z"/>
<path d="M4298 4483 c7 -3 16 -2 19 1 4 3 -2 6 -13 5 -11 0 -14 -3 -6 -6z"/>
<path d="M4808 5243 c7 -3 16 -2 19 1 4 3 -2 6 -13 5 -11 0 -14 -3 -6 -6z"/>
<path d="M4993 5203 c-23 -2 -47 -10 -53 -18 -11 -13 -23 -494 -14 -520 7 -17
223 -2 269 19 179 77 208 383 45 475 -38 21 -159 52 -190 49 -8 -1 -34 -3 -57
-5z"/>
<path d="M2400 3430 c-11 -7 1 -9 40 -9 42 1 49 3 30 9 -35 11 -53 11 -70 0z"/>
<path d="M6065 3170 c3 -5 8 -10 11 -10 2 0 4 5 4 10 0 6 -5 10 -11 10 -5 0
-7 -4 -4 -10z"/>
<path d="M7225 3230 c-3 -5 -1 -10 4 -10 6 0 11 5 11 10 0 6 -2 10 -4 10 -3 0
-8 -4 -11 -10z"/>
<path d="M3013 3413 c9 -2 23 -2 30 0 6 3 -1 5 -18 5 -16 0 -22 -2 -12 -5z"/>
<path d="M2983 3368 c-54 -38 -69 -118 -34 -172 58 -88 160 -86 206 4 60 115
-69 240 -172 168z"/>
<path d="M3150 3376 c0 -3 9 -10 20 -16 11 -6 20 -8 20 -6 0 3 -9 10 -20 16
-11 6 -20 8 -20 6z"/>
<path d="M2890 3201 c0 -5 5 -13 10 -16 6 -3 10 -2 10 4 0 5 -4 13 -10 16 -5
3 -10 2 -10 -4z"/>
<path d="M5450 3240 c0 -5 5 -10 10 -10 6 0 10 5 10 10 0 6 -4 10 -10 10 -5 0
-10 -4 -10 -10z"/>
</g>
</svg>
