<?xml version="1.0" encoding="UTF-8"?>
<svg version="1.1" xmlns="http://www.w3.org/2000/svg" width="1024" height="1024">
<path d="M0 0 C337.92 0 675.84 0 1024 0 C1024 337.92 1024 675.84 1024 1024 C686.08 1024 348.16 1024 0 1024 C0 686.08 0 348.16 0 0 Z " fill="#090B0E" transform="translate(0,0)"/>
<path d="M0 0 C7.28421548 -0.02312916 14.5684231 -0.04091801 21.85266781 -0.05181217 C25.23471813 -0.05703975 28.6167434 -0.06413511 31.9987793 -0.07543945 C35.88329777 -0.08834267 39.76780597 -0.09322924 43.65234375 -0.09765625 C44.87211411 -0.10281754 46.09188446 -0.10797882 47.34861755 -0.11329651 C49.03024742 -0.11340981 49.03024742 -0.11340981 50.74584961 -0.11352539 C51.73846298 -0.115746 52.73107635 -0.11796661 53.75376892 -0.12025452 C56 0 56 0 57 1 C57.1328125 2.8125 57.1328125 2.8125 57.125 5 C57.12757813 5.721875 57.13015625 6.44375 57.1328125 7.1875 C57 9 57 9 56 10 C54.55710213 10.09295815 53.10970215 10.11746513 51.66381836 10.11352539 C50.73001343 10.11340454 49.7962085 10.11328369 48.83410645 10.11315918 C47.84599976 10.10804321 46.85789307 10.10292725 45.83984375 10.09765625 C44.93657349 10.09664917 44.03330322 10.09564209 43.10266113 10.09460449 C39.71426126 10.08935512 36.32587941 10.07539398 32.9375 10.0625 C25.368125 10.041875 17.79875 10.02125 10 10 C10.33 29.8 10.66 49.6 11 70 C15.29 72.31 19.58 74.62 24 77 C30.80822468 82.76807924 37.35183403 90.66901933 38.17700195 100.00195312 C38.6369655 117.1103982 36.23054041 129.06600095 24.5 142.125 C18.16276159 148.24159955 9.56076834 152.28784633 1 154 C1 159.61 1 165.22 1 171 C16.11558428 172.47544273 16.11558428 172.47544273 29.46484375 166.8046875 C32.45357327 163.72282586 34.99658406 160.35885644 37.50439453 156.88134766 C40.34766998 153.30474291 43.89686265 150.05156868 48 148 C50.37867993 147.88653851 52.72879304 147.83221731 55.10839844 147.82299805 C55.8403241 147.81642685 56.57224976 147.80985565 57.32635498 147.80308533 C59.75402933 147.78333936 62.18164173 147.77168586 64.609375 147.76171875 C65.43852669 147.75764322 66.26767838 147.7535677 67.12195587 147.74936867 C71.51196545 147.7285007 75.90194372 147.71420311 80.29199219 147.70483398 C84.82265934 147.69377813 89.35283419 147.65939016 93.88332748 147.61966228 C97.36982117 147.59349047 100.85619779 147.58514158 104.34278107 147.58155251 C106.01250782 147.57668666 107.68222934 147.56507264 109.35186005 147.54651451 C111.69297507 147.5221139 114.03281965 147.52308935 116.37402344 147.5300293 C117.40293701 147.51081421 117.40293701 147.51081421 118.45263672 147.49121094 C124.85507891 147.56015493 128.95236761 150.65730164 133.3125 155.0625 C134.22322266 155.95001953 134.22322266 155.95001953 135.15234375 156.85546875 C137 159 137 159 138.56640625 161.86328125 C140.65031521 165.33346226 142.37893858 168.12117298 146 170 C154.18689784 171.69069613 162.69017123 171.2709042 171 171 C171 165.39 171 159.78 171 154 C169.02 153.67 167.04 153.34 165 153 C151.67641919 147.48135706 142.33757914 137.76835798 136 125 C131.71717187 113.13445978 132.56277279 98.6957284 137.40234375 87.15625 C150.27829589 61.71916118 172.41702593 43.61996278 199 34 C207.86640269 31.17084674 215.52444535 30 225 30 C225 23.4 225 16.8 225 10 C222.93619835 10.00333092 222.93619835 10.00333092 220.83070374 10.00672913 C207.89552385 10.02695763 194.96034715 10.04197073 182.02515507 10.05181217 C175.3742647 10.05704174 168.72339214 10.06414072 162.07250977 10.07543945 C155.65997123 10.08626571 149.24744496 10.09227628 142.83489799 10.09487724 C140.38235722 10.09673197 137.92981715 10.10035347 135.47728157 10.10573006 C132.05523323 10.11293702 128.63323629 10.11399109 125.21118164 10.11352539 C123.6737027 10.1189183 123.6737027 10.1189183 122.10516357 10.12442017 C121.17823196 10.1230455 120.25130035 10.12167084 119.29627991 10.12025452 C118.48602387 10.12117631 117.67576784 10.1220981 116.8409586 10.12304783 C115 10 115 10 114 9 C113.8671875 7.1875 113.8671875 7.1875 113.875 5 C113.87242187 4.278125 113.86984375 3.55625 113.8671875 2.8125 C114 1 114 1 115 0 C116.52621142 -0.1001491 118.0570417 -0.1307552 119.58653259 -0.13371277 C121.07356438 -0.14011024 121.07356438 -0.14011024 122.59063721 -0.14663696 C124.23561188 -0.14595718 124.23561188 -0.14595718 125.91381836 -0.14526367 C127.06167313 -0.14862228 128.20952789 -0.1519809 129.39216614 -0.15544128 C133.20806951 -0.16498446 137.02392917 -0.16689606 140.83984375 -0.16796875 C143.47921263 -0.17117891 146.11858133 -0.17454279 148.75794983 -0.17805481 C154.29884122 -0.18445745 159.83972065 -0.18593651 165.38061523 -0.18530273 C171.79206767 -0.18470178 178.20343601 -0.19525542 184.61486715 -0.2110464 C190.77382184 -0.22567715 196.93273606 -0.22929137 203.09170723 -0.22869301 C205.7164704 -0.22987729 208.34123411 -0.23432392 210.96598625 -0.24202538 C214.62965852 -0.25176852 218.29311169 -0.24896975 221.95678711 -0.24291992 C223.59872543 -0.25134918 223.59872543 -0.25134918 225.27383423 -0.25994873 C226.26800858 -0.25575424 227.26218292 -0.25155975 228.28648376 -0.24723816 C229.15351394 -0.24778293 230.02054411 -0.24832769 230.91384792 -0.24888897 C233 0 233 0 235 2 C235.2362462 4.4618548 235.35217741 6.80791864 235.37109375 9.2734375 C235.38012222 9.99359039 235.3891507 10.71374329 235.39845276 11.45571899 C235.41296856 12.98052811 235.42184531 14.5053997 235.42553711 16.03027344 C235.43742244 18.35979727 235.48657619 20.68666163 235.53710938 23.015625 C235.54657508 24.49738291 235.55380941 25.97915708 235.55859375 27.4609375 C235.57812607 28.15585297 235.59765839 28.85076843 235.61778259 29.56674194 C235.58359349 33.24528565 235.26157276 34.72444901 232.69287109 37.43041992 C229.23937176 39.44334351 226.08618014 39.70024699 222.1875 39.9375 C198.42976643 42.12783839 175.65872834 53.93737307 160 72 C150.63147111 83.50990692 143.35118827 95.95674582 143.6875 111.1328125 C144.92677716 122.50318046 151.24400778 131.26602188 159.7890625 138.46875 C163.56146871 141.08144123 167.70798152 142.46406028 172 144 C177.6 146.6 177.6 146.6 180 149 C180.25878906 151.94921875 180.25878906 151.94921875 180.265625 155.6875 C180.26753845 156.34580811 180.2694519 157.00411621 180.27142334 157.68237305 C180.2727845 159.0743854 180.26909283 160.46641047 180.26074219 161.85839844 C180.250041 163.99182589 180.26063906 166.12441131 180.2734375 168.2578125 C180.27211589 169.60937686 180.26955347 170.9609407 180.265625 172.3125 C180.26336914 173.54613281 180.26111328 174.77976562 180.25878906 176.05078125 C180 179 180 179 178 181 C175.57312911 181.19730642 173.26029557 181.26935048 170.83229065 181.25396729 C169.7119673 181.25864726 169.7119673 181.25864726 168.56901115 181.26342177 C166.05317123 181.27143252 163.53757046 181.26506624 161.02172852 181.25878906 C159.22336688 181.26149759 157.42500636 181.26505773 155.62664795 181.26940918 C150.73206545 181.27855262 145.83756695 181.27498073 140.94298291 181.26865101 C135.82876176 181.26360033 130.71454797 181.26827993 125.60032654 181.27142334 C117.00949813 181.27506604 108.41870406 181.27025627 99.82788086 181.26074219 C89.88721925 181.24986052 79.94663969 181.25337991 70.00598007 181.264395 C61.48196476 181.27346335 52.95797419 181.27475526 44.43395561 181.26951766 C39.33826123 181.26639503 34.24260545 181.26599658 29.14691353 181.27259064 C24.35597 181.27835678 19.56513249 181.27438062 14.77420044 181.26280212 C13.01293552 181.26015147 11.25166173 181.26092751 9.49040031 181.26532745 C7.09170964 181.27076849 4.69336166 181.26396646 2.29469299 181.25396729 C1.24178183 181.26065945 1.24178183 181.26065945 0.16759974 181.26748681 C-3.45621858 181.23805677 -4.89156524 181.07228984 -8 179 C-8.40405273 176.08251953 -8.40405273 176.08251953 -8.43359375 172.3828125 C-8.4388356 171.72924774 -8.44407745 171.07568298 -8.44947815 170.40231323 C-8.45590406 169.01871155 -8.45455389 167.63505528 -8.44604492 166.25146484 C-8.43755747 164.13930121 -8.46624272 162.02986327 -8.49804688 159.91796875 C-8.49965965 158.57291748 -8.4990799 157.22786143 -8.49609375 155.8828125 C-8.49794678 154.65965332 -8.4997998 153.43649414 -8.50170898 152.17626953 C-7.90850211 148.42073598 -6.9806298 147.27930514 -4 145 C-1.37109375 144.015625 -1.37109375 144.015625 1.5625 143.25 C12.04942013 139.93766791 19.24412586 134.12422218 24.6953125 124.578125 C28.89536543 116.27861921 29.75993322 106.57096507 26.9375 97.63671875 C22.50580626 87.96647398 16.60173077 83.79158441 6.95263672 80.01269531 C1.39413297 78.10623975 -4.33560422 76.91307428 -10.0625 75.625 C-42.82364864 67.94779348 -77.28053066 53.32281392 -96.4375 24 C-99.16705372 19.26036732 -99.91350596 15.44912462 -100 10 C-98.06775535 8.06775535 -95.16389611 8.87981562 -92.59291077 8.87557983 C-91.67078293 8.87917511 -90.74865509 8.88277039 -89.79858398 8.88647461 C-88.34995972 8.88625557 -88.34995972 8.88625557 -86.87207031 8.8860321 C-83.66338901 8.88673166 -80.45476497 8.89452603 -77.24609375 8.90234375 C-75.02791882 8.90420778 -72.80974348 8.90563175 -70.59156799 8.90663147 C-64.74059929 8.91045784 -58.88965523 8.92028914 -53.03869629 8.93133545 C-47.07332696 8.94154701 -41.10795367 8.94612854 -35.14257812 8.95117188 C-23.42837456 8.96191131 -11.71418933 8.97898915 0 9 C0 6.03 0 3.06 0 0 Z " fill="#D1AF4F" transform="translate(426,363)"/>
<path d="M0 0 C7.5740254 6.180033 12.59342562 14.71397475 14.6875 24.25 C15.86473119 37.60386114 15.23639669 50.80228387 6.30078125 61.51171875 C5.76839844 62.08535156 5.23601562 62.65898438 4.6875 63.25 C4.18605469 63.79269531 3.68460938 64.33539062 3.16796875 64.89453125 C-4.07971247 71.8600643 -12.99113853 74.7284517 -22.875 74.8125 C-34.15040848 74.57985061 -41.97688478 71.5570069 -50.15625 63.59765625 C-58.84091594 54.14206888 -62.08628919 42.72890123 -61.6953125 29.99609375 C-60.53857899 18.67663007 -56.3935011 8.68080852 -47.9375 0.9375 C-34.20930651 -9.99645942 -14.27552203 -9.83962535 0 0 Z " fill="#D4B351" transform="translate(652.3125,623.75)"/>
<path d="M0 0 C43.93846154 0 43.93846154 0 52.125 8.0625 C56.37097668 13.35473409 56.6746717 18.40972863 56 25 C54.58908525 30.19432308 52.28413741 33.12998749 47.75 36 C46.51118423 36.68722627 45.26464006 37.36154094 44 38 C44.77923828 38.32871094 44.77923828 38.32871094 45.57421875 38.6640625 C51.69643587 41.44791724 54.95293546 44.39326724 58.3125 50.3125 C60.04204113 57.07343352 59.42702601 62.85498784 56 69 C51.46983919 74.56562614 45.84706966 77.28823259 39 79 C26.13 79 13.26 79 0 79 C0 52.93 0 26.86 0 0 Z " fill="#D5B452" transform="translate(116,618)"/>
<path d="M0 0 C4.09199196 2.08319591 6.30799578 3.75850526 8 8 C8.71997278 13.07329659 8.5246969 16.9686992 6.1875 21.5625 C4 24 4 24 1 25 C1 29.95 1 34.9 1 40 C11.72118093 36.46985506 16.96944903 32.72566306 23.265625 23.37890625 C26.18336829 19.37686647 29.23066688 16.58977771 34 15 C41.60556754 13.93790788 47.13136154 16.43331572 53.875 19.6875 C69.31109895 26.77986294 84.46394621 30.7281835 101.4375 31.5625 C102.26443359 31.60568359 103.09136719 31.64886719 103.94335938 31.69335938 C105.96209549 31.79838033 107.98102951 31.89958559 110 32 C110 33.32 110 34.64 110 36 C105.17803166 40.71237815 101.8164979 42.1276429 95.25 42.25 C77.47397317 41.99169578 58.84634344 36.00721124 43.60546875 26.96875 C39.93944145 25.60566938 37.73618593 25.90534824 34 27 C31.50939222 29.48838318 31.50939222 29.48838318 29.5625 32.6875 C23.14038967 41.95569534 15.75319555 46.52825401 5 50 C3.68 50 2.36 50 1 50 C1 70.13 1 90.26 1 111 C-8 110 -8 110 -9 109 C-9.09381302 107.15881971 -9.11743954 105.31402359 -9.11352539 103.47045898 C-9.11341209 101.69873573 -9.11341209 101.69873573 -9.11329651 99.89122009 C-9.10813522 98.6058284 -9.10297394 97.32043671 -9.09765625 95.99609375 C-9.0962413 94.68794205 -9.09482635 93.37979034 -9.09336853 92.03199768 C-9.0895441 88.54837141 -9.07971446 85.06478661 -9.06866455 81.58117676 C-9.05844882 78.02873292 -9.05387056 74.47628241 -9.04882812 70.92382812 C-9.03809212 63.94920168 -9.0210166 56.97460283 -9 50 C-10.25482178 49.85900879 -11.50964355 49.71801758 -12.80249023 49.57275391 C-23.57061155 48.36285263 -31.40676867 41.70226103 -37.94140625 33.58984375 C-39.18028365 32.01058791 -40.40679488 30.42150454 -41.6171875 28.8203125 C-42.87317323 27.08171715 -42.87317323 27.08171715 -44 26 C-48.63864185 25.61455412 -51.34597524 26.37382571 -55.375 28.625 C-70.74294149 36.62992284 -91.33687054 44.62998803 -109 42 C-114.28814226 40.23728591 -116.7347918 37.32159909 -120 33 C-118.21838131 31.21838131 -115.80369139 31.89711149 -113.42700195 31.86279297 C-94.29597712 31.46635487 -76.11835098 26.35683092 -59 18 C-52.70209153 15.03612957 -47.8183899 13.86245306 -40.96484375 15.48046875 C-34.83014437 17.88312437 -31.92380485 22.87338394 -28.21875 28.08203125 C-23.01504392 34.92563767 -17.13432739 37.71222042 -9 40 C-9 35.05 -9 30.1 -9 25 C-10.32 24.34 -11.64 23.68 -13 23 C-15.8735953 19.70068688 -16.89822846 17.07877835 -17.3125 12.6875 C-16.87500271 7.52503193 -14.69665768 4.8851752 -11.3125 1.125 C-7.5959403 -0.68305607 -4.04487291 -0.63792623 0 0 Z " fill="#D6B452" transform="translate(516,181)"/>
<path d="M0 0 C43.9825 0 43.9825 0 52.5625 8.25 C57.29196619 14.00761101 58.65301687 20.01129084 58.3046875 27.3671875 C57.37314235 35.41669303 54.25808672 39.24299151 48.15625 44.53125 C46 46 46 46 43 46 C43.40839111 46.78648926 43.81678223 47.57297852 44.23754883 48.38330078 C45.76427544 51.32403246 47.29059652 54.26497388 48.81665039 57.20605469 C49.47501861 58.47469264 50.13354455 59.74324876 50.79223633 61.01171875 C51.74342477 62.84353056 52.69403033 64.67564386 53.64453125 66.5078125 C54.21534424 67.60754395 54.78615723 68.70727539 55.37426758 69.84033203 C56.93919435 72.88182208 58.47031653 75.94063307 60 79 C54.06 79 48.12 79 42 79 C40.00246557 75.0507929 38.00741275 71.1005287 36.01855469 67.14697266 C35.34095653 65.80184612 34.66192541 64.45744044 33.98144531 63.11376953 C33.00470162 61.18448716 32.03310723 59.25268782 31.0625 57.3203125 C30.47597656 56.15773926 29.88945313 54.99516602 29.28515625 53.79736328 C28 51 28 51 28 49 C23.71 49 19.42 49 15 49 C15 58.9 15 68.8 15 79 C10.05 79 5.1 79 0 79 C0 52.93 0 26.86 0 0 Z " fill="#D5B452" transform="translate(684,618)"/>
<path d="M0 0 C5.39305534 0.40702304 9.05720727 2.16207963 13.125 5.6875 C16.83230861 10.03034723 17.78886434 13.24567131 17.61328125 18.8828125 C16.87132301 24.72212024 14.16255794 28.86570584 9.8125 32.75 C4.24465176 36.85558506 -2.28662006 39.05276045 -8.76757812 41.32226562 C-13.81445172 43.16063251 -16.26131906 44.22134124 -18.6875 49.25 C-22.375 50.5625 -22.375 50.5625 -25.6875 51.25 C-25.3575 52.24 -25.0275 53.23 -24.6875 54.25 C-24.6875 53.59 -24.6875 52.93 -24.6875 52.25 C-23.44329353 51.7154744 -22.19179064 51.19791389 -20.9375 50.6875 C-20.24140625 50.39746094 -19.5453125 50.10742188 -18.828125 49.80859375 C-16.31060597 49.15164992 -15.08946658 49.28130566 -12.6875 50.25 C-7.85169449 55.43122019 -5.22275567 58.88078434 -5.4375 66.1015625 C-6.20044716 72.65813964 -9.08336663 77.56743562 -13.6875 82.25 C-16.74609375 84.5234375 -16.74609375 84.5234375 -20.125 86.625 C-21.02774658 87.19299316 -21.02774658 87.19299316 -21.94873047 87.77246094 C-25.11212098 89.74250605 -28.31635197 91.62040058 -31.57421875 93.4296875 C-32.20078369 93.77854004 -32.82734863 94.12739258 -33.47290039 94.48681641 C-35.2168173 95.4473015 -36.97142391 96.38830251 -38.7265625 97.328125 C-42.43961896 99.73818276 -45.17263674 102.07318844 -46.21875 106.49609375 C-46.1228528 113.22088524 -44.09402227 116.70978205 -39.4375 121.625 C-38.86 122.16125 -38.2825 122.6975 -37.6875 123.25 C-38.6875 126.25 -38.6875 126.25 -41.6875 128.25 C-44.47710762 128.07807587 -45.50319651 127.43113268 -47.50390625 125.46484375 C-52.1428344 119.41451912 -55.10488036 114.32833746 -56.1875 106.75 C-55.17918033 99.69176234 -51.37514903 95.55295571 -45.875 91.25 C-44.48868935 90.23683985 -43.09605529 89.23199933 -41.6875 88.25 C-42.0175 87.26 -42.3475 86.27 -42.6875 85.25 C-44.6675 86.24 -44.6675 86.24 -46.6875 87.25 C-60.78358837 76.95848693 -60.78358837 76.95848693 -62.12109375 68.51171875 C-62.38552987 62.58995234 -61.78878863 58.77193362 -57.6875 54.25 C-52.80034105 49.48493752 -47.67430096 46.40464801 -41.5 43.5625 C-40.61304443 43.14532715 -39.72608887 42.7281543 -38.81225586 42.29833984 C-29.74598382 38.11938532 -20.44735947 34.51718884 -11.10668945 31.00512695 C-1.63977506 27.76192676 -1.63977506 27.76192676 5.6875 21.3125 C6.44450425 18.81438597 6.58574172 16.8457963 6.3125 14.25 C4.44537971 11.97791297 4.44537971 11.97791297 1.5 11.875 C-1.79974136 11.97818773 -1.79974136 11.97818773 -4.1875 14.25 C-6.6875 16.25 -6.6875 16.25 -9.6875 16.8125 C-13.82912899 16.03594456 -15.28071321 14.67784786 -17.6875 11.25 C-17.6875 7.7579504 -17.56853815 5.41112127 -15.421875 2.58203125 C-11.38147713 -0.52106711 -4.90287975 0.33239863 0 0 Z " fill="#0D0E0E" transform="translate(545.6875,258.75)"/>
<path d="M0 0 C9.75213142 5.89482904 13.68957578 12.44189686 16.44921875 23.48046875 C10.83921875 23.48046875 5.22921875 23.48046875 -0.55078125 23.48046875 C-1.87078125 21.17046875 -3.19078125 18.86046875 -4.55078125 16.48046875 C-9.99763735 11.4321631 -14.42483806 11.17833533 -21.609375 11.2734375 C-27.07688944 11.65826919 -30.10017401 13.79086176 -33.73828125 17.66796875 C-40.00788308 25.59959101 -40.37073178 33.54995679 -39.55078125 43.48046875 C-38.16821579 51.31500638 -34.2694356 56.73574768 -27.92578125 61.41796875 C-21.24814126 63.52018875 -14.24562126 63.72111664 -7.92578125 60.48046875 C-6.81203125 59.82046875 -5.69828125 59.16046875 -4.55078125 58.48046875 C-3.89078125 58.48046875 -3.23078125 58.48046875 -2.55078125 58.48046875 C-0.42871467 54.56280736 0.83977354 50.77232263 2.44921875 46.48046875 C-4.15078125 46.48046875 -10.75078125 46.48046875 -17.55078125 46.48046875 C-17.55078125 41.86046875 -17.55078125 37.24046875 -17.55078125 32.48046875 C-6.00078125 32.48046875 5.54921875 32.48046875 17.44921875 32.48046875 C17.44921875 58.42006607 17.44921875 58.42006607 6.703125 69.23828125 C-1.89545923 76.3531181 -12.07430318 78.18399115 -22.9921875 77.87109375 C-32.84706273 76.78932918 -41.03258469 71.62258474 -47.875 64.61328125 C-56.59501987 53.51507414 -56.56347274 39.90060383 -55.55078125 26.48046875 C-53.07931769 14.62256585 -45.70167007 6.10110536 -35.90234375 -0.65625 C-25.57753178 -6.47160852 -10.26757185 -5.11230565 0 0 Z " fill="#D4B251" transform="translate(812.55078125,620.51953125)"/>
<path d="M0 0 C5.94 0 11.88 0 18 0 C18.51304687 1.464375 19.02609375 2.92875 19.5546875 4.4375 C23.80642692 16.48600249 28.1626961 28.48669584 32.671875 40.44140625 C33.07822174 41.51949554 33.48456848 42.59758484 33.90322876 43.70834351 C35.96317488 49.16969167 38.03009205 54.62829624 40.10498047 60.08398438 C40.87481026 62.11974033 41.64451005 64.15554544 42.4140625 66.19140625 C42.77610779 67.13714005 43.13815308 68.08287384 43.51116943 69.05726624 C43.83957825 69.9285466 44.16798706 70.79982697 44.50634766 71.69750977 C44.79595367 72.45910904 45.08555969 73.22070831 45.38394165 74.00538635 C46 76 46 76 46 79 C40.72 79 35.44 79 30 79 C27.45036952 72.88088684 25.62954307 67.51817229 24 61 C8.655 61.495 8.655 61.495 -7 62 C-8.98 67.61 -10.96 73.22 -13 79 C-18.61 79 -24.22 79 -30 79 C-23.80313532 61.93519987 -17.49465921 44.91418959 -11.08834839 27.92684937 C-10.32161734 25.89361224 -9.55560474 23.86010404 -8.79031372 21.82632446 C-7.70497328 18.94323174 -6.6166412 16.06128715 -5.52734375 13.1796875 C-5.20067719 12.31110611 -4.87401062 11.44252472 -4.53744507 10.54762268 C-4.07986313 9.34044838 -4.07986313 9.34044838 -3.61303711 8.10888672 C-3.34865341 7.40883514 -3.08426971 6.70878357 -2.81187439 5.98751831 C-1.97805751 3.94628345 -0.98609232 1.97218465 0 0 Z " fill="#D4B351" transform="translate(283,618)"/>
<path d="M0 0 C29.04 0 58.08 0 88 0 C88 16.17 88 32.34 88 49 C56.60334659 45.86033466 23.90992743 31.21418844 3.14453125 6.8203125 C0 2.5747549 0 2.5747549 0 0 Z " fill="#0A0C0E" transform="translate(338,381)"/>
<path d="M0 0 C4.95 0 9.9 0 15 0 C15.33 10.89 15.66 21.78 16 33 C18.041875 30.525 20.08375 28.05 22.1875 25.5 C23.22487305 24.26648804 23.22487305 24.26648804 24.28320312 23.00805664 C27.45503428 19.22332985 30.44119409 15.43600087 33.15625 11.30859375 C40.33062713 0.75382573 40.33062713 0.75382573 45.41894531 -0.68310547 C51.03991534 -1.35456313 56.42515087 -0.84770673 62 0 C59.21933949 4.33627478 56.1855706 8.29081625 52.8125 12.1875 C51.83904062 13.32353104 50.86639799 14.46026241 49.89453125 15.59765625 C49.41064941 16.16371582 48.92676758 16.72977539 48.42822266 17.31298828 C45.52019952 20.74793526 42.70158937 24.2557514 39.875 27.7578125 C38.32312144 29.61360061 36.74647403 31.32993421 35 33 C38.66300269 40.7349814 44.05609855 47.66045166 48.9453125 54.65625 C49.65155762 55.6671167 50.35780273 56.6779834 51.08544922 57.71948242 C52.50854587 59.75300504 53.93457037 61.7844824 55.36376953 63.8137207 C58.83143608 68.76377085 62.12276868 73.6830545 65 79 C48.46080382 80.6505851 48.46080382 80.6505851 43.44921875 77.2890625 C41.79615757 74.965247 40.42731887 72.61321256 39.13330078 70.07421875 C36.61459157 65.46436235 33.54604043 61.17334015 30.625 56.8125 C30.00455811 55.85512939 29.38411621 54.89775879 28.74487305 53.91137695 C28.16133057 53.01894287 27.57778809 52.12650879 26.9765625 51.20703125 C26.45143066 50.3972583 25.92629883 49.58748535 25.38525391 48.75317383 C24.92812012 48.17462646 24.47098633 47.5960791 24 47 C21.92022939 46.77877058 21.92022939 46.77877058 20.52294922 48.31054688 C15.41777754 54.4248622 15.10639478 59.72301766 15.125 67.5 C15.104375 68.60859375 15.08375 69.7171875 15.0625 70.859375 C15.01572037 73.5725934 15.0042667 76.28638171 15 79 C10.05 79 5.1 79 0 79 C0 52.93 0 26.86 0 0 Z " fill="#D5B452" transform="translate(425,618)"/>
<path d="M0 0 C7.03348487 4.97613987 12.27984479 10.71068492 15 19 C15 20.32 15 21.64 15 23 C3.0333564 24.07939658 3.0333564 24.07939658 -2 23 C-5.02562835 20.45155047 -6.27526247 17.49910779 -8 14 C-12.64231301 10.26350416 -18.03561857 10.3788154 -23.80078125 10.5234375 C-28.75773588 11.26183611 -31.70958157 13.29625315 -35 17 C-40.97037854 25.11761994 -40.69017963 34.34490644 -40 44 C-38.71399855 51.36159888 -35.49038443 56.50686826 -29.375 60.875 C-23.49155642 62.83614786 -17.01272864 63.03941665 -11.125 60.875 C-6.92822808 58.35693685 -4.21738088 55.43476177 -2 51 C3.61 51 9.22 51 15 51 C13.84228577 59.1039996 11.83958655 63.62897316 5.6953125 69.0234375 C-4.65478988 76.66510187 -14.39462951 78.11077027 -27 77 C-36.97648443 74.84127415 -44.81835667 69.52916766 -50.68359375 61.21875 C-57.49864108 49.73226074 -58.80429169 36.42355776 -56.31640625 23.4296875 C-53.01983045 12.73291457 -46.34468993 4.62797377 -36.8984375 -1.32421875 C-26.25867523 -6.53441161 -10.1668623 -5.98715224 0 0 Z " fill="#D4B351" transform="translate(393,621)"/>
<path d="M0 0 C16.83 0 33.66 0 51 0 C51 4.29 51 8.58 51 13 C39.12 13 27.24 13 15 13 C15 19.27 15 25.54 15 32 C24.9 32 34.8 32 45 32 C45 36.62 45 41.24 45 46 C35.1 46 25.2 46 15 46 C15 52.27 15 58.54 15 65 C27.21 65 39.42 65 52 65 C52 69.62 52 74.24 52 79 C34.84 79 17.68 79 0 79 C0 52.93 0 26.86 0 0 Z " fill="#D6B552" transform="translate(849,618)"/>
<path d="M0 0 C16.83 0 33.66 0 51 0 C51 4.29 51 8.58 51 13 C39.45 13 27.9 13 16 13 C16 19.93 16 26.86 16 34 C25.57 34 35.14 34 45 34 C45 38.29 45 42.58 45 47 C35.43 47 25.86 47 16 47 C16 57.56 16 68.12 16 79 C10.72 79 5.44 79 0 79 C0 52.93 0 26.86 0 0 Z " fill="#D0AD4F" transform="translate(531,618)"/>
<path d="M0 0 C6.39141612 3.71959463 10.49091183 9.41070873 12.6875 16.4375 C13.13064305 19.22204609 13.21265589 21.93349538 13.1875 24.75 C13.18177979 25.49548096 13.17605957 26.24096191 13.17016602 27.0090332 C12.93334171 34.35377631 11.00374613 39.83419839 5.97265625 45.30078125 C0.49706281 50.3210737 -4.34873344 51.93314864 -11.75390625 51.74609375 C-17.51075836 51.05175586 -21.68180255 48.41603171 -25.625 44.25 C-31.61781872 36.52628541 -32.15094787 27.94384553 -31.3125 18.4375 C-29.90335676 10.14767536 -25.27852823 4.32188417 -18.5625 -0.5625 C-12.38679848 -2.46271585 -5.98291198 -2.66417577 0 0 Z " fill="#0A0C0E" transform="translate(638.3125,632.5625)"/>
<path d="M0 0 C4.95 0 9.9 0 15 0 C15 21.45 15 42.9 15 65 C26.88 65 38.76 65 51 65 C51 69.62 51 74.24 51 79 C34.17 79 17.34 79 0 79 C0 52.93 0 26.86 0 0 Z " fill="#D6B552" transform="translate(191,618)"/>
<path d="M0 0 C5.39305534 0.40702304 9.05720727 2.16207963 13.125 5.6875 C16.83230861 10.03034723 17.78886434 13.24567131 17.61328125 18.8828125 C16.87132301 24.72212024 14.16255794 28.86570584 9.8125 32.75 C2.23367359 38.21121315 -6.99973724 41.02872919 -15.6875 44.25 C-35.42141804 50.389621 -35.42141804 50.389621 -51.6875 62.25 C-52.18996722 65.40594583 -51.61579669 68.2084632 -50.6875 71.25 C-47.29125125 75.77833167 -42.51944669 78.43236359 -37.6875 81.25 C-40.58425481 83.66396234 -43.28537701 85.63617243 -46.6875 87.25 C-60.78358837 76.95848693 -60.78358837 76.95848693 -62.12109375 68.51171875 C-62.38552987 62.58995234 -61.78878863 58.77193362 -57.6875 54.25 C-52.80034105 49.48493752 -47.67430096 46.40464801 -41.5 43.5625 C-40.61304443 43.14532715 -39.72608887 42.7281543 -38.81225586 42.29833984 C-29.74598382 38.11938532 -20.44735947 34.51718884 -11.10668945 31.00512695 C-1.63977506 27.76192676 -1.63977506 27.76192676 5.6875 21.3125 C6.44450425 18.81438597 6.58574172 16.8457963 6.3125 14.25 C4.44537971 11.97791297 4.44537971 11.97791297 1.5 11.875 C-1.79974136 11.97818773 -1.79974136 11.97818773 -4.1875 14.25 C-6.6875 16.25 -6.6875 16.25 -9.6875 16.8125 C-13.82912899 16.03594456 -15.28071321 14.67784786 -17.6875 11.25 C-17.6875 7.7579504 -17.56853815 5.41112127 -15.421875 2.58203125 C-11.38147713 -0.52106711 -4.90287975 0.33239863 0 0 Z " fill="#D4B351" transform="translate(545.6875,258.75)"/>
<path d="M0 0 C9 0 9 0 11.85424805 2.77880859 C12.68938651 4.04779054 13.49034248 5.33971671 14.26171875 6.6484375 C14.70087112 7.3349942 15.1400235 8.0215509 15.59248352 8.72891235 C16.98822306 10.92660653 18.33754227 13.14895711 19.6875 15.375 C20.60451369 16.83386333 21.52441142 18.29091801 22.44726562 19.74609375 C27.0820558 27.09417024 31.52992971 34.54988285 36 42 C36.33 28.14 36.66 14.28 37 0 C39.64 0 42.28 0 45 0 C45 18.81 45 37.62 45 57 C36 57 36 57 33.89268494 55.44348145 C33.43301834 54.71512085 32.97335175 53.98676025 32.49975586 53.23632812 C31.95987534 52.41547729 31.41999481 51.59462646 30.86375427 50.74890137 C30.3196138 49.85207642 29.77547333 48.95525146 29.21484375 48.03125 C28.62828506 47.12121216 28.04172638 46.21117432 27.43739319 45.27355957 C25.57371842 42.36712829 23.75573516 39.43502407 21.9375 36.5 C20.68064571 34.52288583 19.42091134 32.54759938 18.15820312 30.57421875 C15.0657055 25.73926849 12.03658101 20.87211041 9 16 C8.67 29.53 8.34 43.06 8 57 C5.36 57 2.72 57 0 57 C0 38.19 0 19.38 0 0 Z " fill="#D4B351" transform="translate(707,753)"/>
<path d="M0 0 C8 0 8 0 9.98706055 1.51855469 C10.44894775 2.22915039 10.91083496 2.93974609 11.38671875 3.671875 C11.9266748 4.47270508 12.46663086 5.27353516 13.02294922 6.09863281 C13.57225098 6.97358398 14.12155273 7.84853516 14.6875 8.75 C15.27547363 9.6378418 15.86344727 10.52568359 16.46923828 11.44042969 C18.3393423 14.27724438 20.16959814 17.13744552 22 20 C23.2617782 21.92875047 24.52607323 23.85585696 25.79296875 25.78125 C28.89667084 30.49985345 31.94521377 35.24811031 35 40 C35.33 26.8 35.66 13.6 36 0 C38.64 0 41.28 0 44 0 C44 18.81 44 37.62 44 57 C36 57 36 57 34.01293945 55.48144531 C33.55105225 54.77084961 33.08916504 54.06025391 32.61328125 53.328125 C32.0733252 52.52729492 31.53336914 51.72646484 30.97705078 50.90136719 C30.42774902 50.02641602 29.87844727 49.15146484 29.3125 48.25 C28.43053955 46.9182373 28.43053955 46.9182373 27.53076172 45.55957031 C25.6606577 42.72275562 23.83040186 39.86255448 22 37 C20.7382218 35.07124953 19.47392677 33.14414304 18.20703125 31.21875 C15.10332916 26.50014655 12.05478623 21.75188969 9 17 C8.67 30.2 8.34 43.4 8 57 C5.36 57 2.72 57 0 57 C0 38.19 0 19.38 0 0 Z " fill="#D4B552" transform="translate(323,753)"/>
<path d="M0 0 C3.822428 3.05954846 6.22526938 6.01932521 7.984375 10.67578125 C7.984375 11.66578125 7.984375 12.65578125 7.984375 13.67578125 C4.91208806 14.0302759 2.04261643 14.20233064 -1.015625 13.67578125 C-3.203125 10.86328125 -3.203125 10.86328125 -5.015625 7.67578125 C-9.96934104 4.13741265 -15.12581371 3.82204639 -21.015625 4.67578125 C-25.91035307 7.03250217 -28.33178102 10.00390469 -31.015625 14.67578125 C-33.1311429 21.02233494 -33.24615751 30.02131186 -31.109375 36.3671875 C-28.02358 41.57941175 -23.773665 44.75643458 -18.015625 46.67578125 C-12.24229416 47.24179408 -7.66650132 46.13988224 -3.015625 42.67578125 C-1.29571914 39.96904415 -0.70740936 37.59362485 -0.390625 34.42578125 C-0.205 32.56953125 -0.205 32.56953125 -0.015625 30.67578125 C-4.635625 30.67578125 -9.255625 30.67578125 -14.015625 30.67578125 C-14.015625 28.36578125 -14.015625 26.05578125 -14.015625 23.67578125 C-6.425625 23.67578125 1.164375 23.67578125 8.984375 23.67578125 C9.29582119 32.70772067 8.99617936 39.65610732 4.296875 47.48828125 C-2.07514268 53.51586555 -9.60949407 55.04794665 -18.1328125 54.95703125 C-25.14480619 54.2729343 -31.1936197 50.71696861 -36.015625 45.67578125 C-41.66585599 36.12091909 -43.87524076 26.88721709 -41.3671875 15.8125 C-38.1578016 6.99354643 -32.46737256 0.66245463 -24.015625 -3.32421875 C-15.85332217 -5.76635353 -7.14345079 -4.69308104 0 0 Z " fill="#D7B653" transform="translate(822.015625,756.32421875)"/>
<path d="M0 0 C7.19958582 4.24411382 10.4329711 11.29891331 13 19 C13.73191785 29.82393898 13.41993542 39.19985296 6.4375 47.875 C0.52792352 53.95680457 -5.66717253 56.14797229 -14.0625 56.5 C-21.8350508 56.22026809 -28.39500365 53.4448536 -34 48 C-40.95954437 38.85317025 -40.99627669 29.02529219 -40 18 C-38.50305384 10.7662542 -34.91241053 5.40509638 -29 1 C-19.80562034 -4.75930473 -9.7624222 -4.32241926 0 0 Z M-28.3125 11.375 C-32.97961757 18.63496067 -32.98713421 27.05764754 -31.60546875 35.375 C-29.87375084 41.0952553 -25.81296397 44.65227305 -21 48 C-15.34423877 49.88525374 -10.28468569 49.2692707 -4.859375 47.05078125 C-0.63640027 44.66426822 2.3139711 40.49360126 4 36 C4.31814073 33.03864003 4.32451986 30.10111774 4.3125 27.125 C4.32861328 26.33480469 4.34472656 25.54460938 4.36132812 24.73046875 C4.36622136 18.84879574 3.4208469 14.57181285 -0.75390625 10.13671875 C-1.64916016 9.41935547 -1.64916016 9.41935547 -2.5625 8.6875 C-3.46162109 7.95080078 -3.46162109 7.95080078 -4.37890625 7.19921875 C-12.1864444 1.42352185 -22.2021478 5.09950315 -28.3125 11.375 Z " fill="#D6B653" transform="translate(281,755)"/>
<path d="M0 0 C0.66858536 -0.01299637 1.33717072 -0.02599274 2.02601624 -0.03938293 C9.03454776 -0.16636944 16.0442872 -0.2229009 23.05371094 -0.27441406 C26.37437946 -0.30110402 29.69360174 -0.34975094 33.01367188 -0.41796875 C37.0297163 -0.50026943 41.04438967 -0.54265178 45.06123161 -0.55747795 C46.58627509 -0.56967068 48.11127732 -0.59557645 49.63583565 -0.6359272 C63.02722796 -0.97244805 63.02722796 -0.97244805 68.74755859 3.91650391 C71.87302023 7.1492433 73.93808622 10.4126225 76.48999023 14.24047852 C44.80999023 14.24047852 13.12999023 14.24047852 -19.51000977 14.24047852 C-17.61167425 10.44380748 -15.98772586 8.47752111 -13.01000977 5.55297852 C-12.21594727 4.76536133 -11.42188477 3.97774414 -10.60375977 3.16625977 C-7.06794474 -0.08589845 -4.7370242 0.08563318 0 0 Z " fill="#0C0E0E" transform="translate(483.510009765625,519.759521484375)"/>
<path d="M0 0 C3.2578495 2.65399181 4.81697494 5.23974205 5.8125 9.375 C5.874375 10.24125 5.93625 11.1075 6 12 C2.94998682 12.28773709 0.0385411 12.44955243 -3 12 C-4.875 9.625 -4.875 9.625 -6 7 C-9.20624887 4.86250075 -10.22458103 4.70425001 -13.9375 4.6875 C-15.21947266 4.66236328 -15.21947266 4.66236328 -16.52734375 4.63671875 C-19.51318068 5.07539621 -20.86772776 5.88233237 -23 8 C-23.65897424 12.594559 -23.65897424 12.594559 -21.7512207 16.61572266 C-19.72636646 18.21629753 -18.00312009 18.87734906 -15.54296875 19.6484375 C-14.67736328 19.93203125 -13.81175781 20.215625 -12.91992188 20.5078125 C-11.11120244 21.08184497 -9.30131568 21.65221334 -7.49023438 22.21875 C-1.2751893 24.26432451 3.3219263 26.46981195 7.375 31.8125 C8.73407117 36.56924911 8.49106168 40.60865858 6.875 45.1875 C3.38176466 50.42735301 -0.81198197 53.73947781 -7 55 C-15.46637649 55.9079882 -21.94681776 54.93464398 -29 50 C-32.53256071 46.89069541 -34.57793733 43.78337695 -35 39 C-31.92732751 38.64546087 -29.05799677 38.46909778 -26 39 C-23.75 41.875 -23.75 41.875 -22 45 C-17.99718396 47.44616536 -13.58323657 47.59975947 -9 47 C-4.67774504 45.43343215 -4.67774504 45.43343215 -2 42 C-1.41630557 38.58461856 -1.41630557 38.58461856 -2 35 C-6.13580659 31.65346947 -10.45848971 29.97680604 -15.5 28.5 C-22.15423919 26.55077842 -28.23428674 24.14405848 -32 18 C-33.20643566 14.38069302 -33.32268559 11.80768995 -33 8 C-30.26123657 2.8267802 -26.83749983 -0.4236112 -21.75 -3.25 C-13.96401626 -5.37345011 -6.97946338 -3.94650285 0 0 Z " fill="#D7B653" transform="translate(430,756)"/>
<path d="M0 0 C2.64 0 5.28 0 8 0 C8.01458252 1.18029785 8.02916504 2.3605957 8.04418945 3.57666016 C8.10232697 7.97149375 8.17955881 12.36582326 8.26245117 16.76025391 C8.29562793 18.65925899 8.32368231 20.55836096 8.34643555 22.45751953 C8.38011518 25.19345235 8.4324372 27.92850311 8.48828125 30.6640625 C8.49467117 31.50804596 8.5010611 32.35202942 8.50764465 33.22158813 C8.65167918 39.0456246 9.56745172 43.52560143 13.81640625 47.84765625 C18.20990412 50.16622847 23.18802754 49.58586258 28 49 C31.50489676 47.17745368 32.56843093 46.01973883 34.09130859 42.42138672 C35.21784259 38.17978345 35.35266552 34.25248995 35.4140625 29.8828125 C35.43342865 29.02565643 35.4527948 28.16850037 35.4727478 27.28536987 C35.53221256 24.56534572 35.57879569 21.84527848 35.625 19.125 C35.6632103 17.27341972 35.70226378 15.42185663 35.7421875 13.5703125 C35.83788664 9.04701575 35.92203906 4.52363584 36 0 C38.64 0 41.28 0 44 0 C44.07451939 5.69251691 44.12877612 11.38474575 44.16479492 17.07763672 C44.17982075 19.01160635 44.20024726 20.94554226 44.22631836 22.87939453 C44.26297591 25.66968136 44.27978868 28.45951511 44.29296875 31.25 C44.30845261 32.10553467 44.32393646 32.96106934 44.33988953 33.8425293 C44.3417848 40.70326472 43.19646568 46.23872886 38.8125 51.75 C32.46465608 56.82827514 27.28002804 58.74520985 19.0390625 58.453125 C12.85670392 57.53133375 7.94955939 54.9008204 3.5 50.5625 C-0.04869076 44.50015328 -0.27477105 39.05992048 -0.1953125 32.2265625 C-0.1924826 31.3028183 -0.18965271 30.3790741 -0.18673706 29.42733765 C-0.17559179 26.49309024 -0.15049765 23.5591543 -0.125 20.625 C-0.11496289 18.62891068 -0.10583832 16.63281654 -0.09765625 14.63671875 C-0.07567097 9.75769351 -0.04118017 4.87889946 0 0 Z " fill="#D7B653" transform="translate(464,753)"/>
<path d="M0 0 C4.47435227 2.71195885 8.35695097 6.3754115 9.94921875 11.46875 C10.23828125 13.39453125 10.23828125 13.39453125 10.30078125 16.39453125 C7.33078125 16.39453125 4.36078125 16.39453125 1.30078125 16.39453125 C0.68203125 15.00234375 0.68203125 15.00234375 0.05078125 13.58203125 C-2.26026362 9.3726281 -4.19623607 7.89552548 -8.69921875 6.39453125 C-13.72434948 5.86693577 -17.57972387 5.82460659 -22.13671875 8.14453125 C-26.96861424 12.38717119 -29.32915778 16.34300163 -29.92578125 22.875 C-30.17060384 30.76496433 -29.32876826 38.07299503 -24.32421875 44.39453125 C-19.14613492 48.33973798 -15.50752299 48.74961942 -9.140625 47.93359375 C-5.61090195 47.1542309 -3.37365032 45.80151966 -0.69921875 43.39453125 C0.71268689 40.79015892 0.71268689 40.79015892 1.30078125 38.39453125 C4.60078125 38.39453125 7.90078125 38.39453125 11.30078125 38.39453125 C9.92577147 44.23832283 8.45771472 48.30173266 3.21484375 51.77734375 C-4.41300588 56.21214004 -12.32477636 57.95132576 -21.06640625 55.81640625 C-28.53393423 52.97409456 -34.32316783 46.99491126 -37.69921875 39.76953125 C-40.46101382 30.82059788 -39.82422431 19.80387736 -35.69921875 11.39453125 C-28.11830917 -2.19882386 -13.92053891 -6.28311405 0 0 Z " fill="#D8B753" transform="translate(206.69921875,754.60546875)"/>
<path d="M0 0 C0.78890625 0.03222656 1.5778125 0.06445312 2.390625 0.09765625 C6.14191871 0.3447854 8.1947402 0.58398759 11.2578125 2.87890625 C12.75 5 12.75 5 13.375 7.9375 C12.75 11 12.75 11 10.125 13.875 C6.46957168 16.17656598 4.95936945 16.82357228 0.75 16 C-0.58333333 14.66666667 -1.91666667 13.33333333 -3.25 12 C-6.33461971 11.49957854 -6.33461971 11.49957854 -9.25 12 C-11.56686366 13.87644507 -11.56686366 13.87644507 -11.4375 16.9375 C-11.37950232 20.04093079 -11.37950232 20.04093079 -10.25 23 C-7.54980475 24.65220309 -4.64566675 25.62046601 -1.65234375 26.62109375 C-0.77280029 26.91556396 0.10674316 27.21003418 1.01293945 27.51342773 C2.39872192 27.97084351 2.39872192 27.97084351 3.8125 28.4375 C4.75246826 28.74953369 5.69243652 29.06156738 6.66088867 29.38305664 C12.97179758 31.46049981 19.29541516 33.41280701 25.75 35 C25.75 35.66 25.75 36.32 25.75 37 C21.80037272 40.09299027 17.79372704 42.48844009 12.75 43 C1.44467845 41.33437611 -12.09300369 36.26231665 -19.66162109 27.33496094 C-22.6493938 23.15556421 -22.90500889 18.67545098 -22.69140625 13.65234375 C-21.97983108 9.37659558 -20.36692206 6.93054181 -17.25 4 C-11.59037565 0.13173202 -6.71561001 -0.54844148 0 0 Z " fill="#D5B451" transform="translate(483.25,259)"/>
<path d="M0 0 C4.83580551 5.18122019 7.46474433 8.63078434 7.25 15.8515625 C6.48705284 22.40813964 3.60413337 27.31743562 -1 32 C-4.05859375 34.2734375 -4.05859375 34.2734375 -7.4375 36.375 C-8.34024658 36.94299316 -8.34024658 36.94299316 -9.26123047 37.52246094 C-12.42462098 39.49250605 -15.62885197 41.37040058 -18.88671875 43.1796875 C-19.82656616 43.70296631 -19.82656616 43.70296631 -20.78540039 44.23681641 C-22.5293173 45.1973015 -24.28392391 46.13830251 -26.0390625 47.078125 C-29.75211896 49.48818276 -32.48513674 51.82318844 -33.53125 56.24609375 C-33.4353528 62.97088524 -31.40652227 66.45978205 -26.75 71.375 C-26.1725 71.91125 -25.595 72.4475 -25 73 C-26 76 -26 76 -29 78 C-31.78960762 77.82807587 -32.81569651 77.18113268 -34.81640625 75.21484375 C-39.4553344 69.16451912 -42.41738036 64.07833746 -43.5 56.5 C-42.38271579 48.67901055 -37.63026709 44.39979901 -31.57446289 39.79736328 C-26.4472664 36.21780704 -20.89744323 33.37062495 -15.37695312 30.45117188 C-10.14028655 27.57799 -6.62296839 25.45841188 -4 20 C-3.09479923 16.25434163 -3.09120661 12.60252879 -5.0234375 9.1953125 C-6.46754251 7.3776463 -6.46754251 7.3776463 -9 5 C-10.00117164 4.00117302 -11.0014652 3.00146306 -12 2 C-10.75579353 1.4654744 -9.50429064 0.94791389 -8.25 0.4375 C-7.55390625 0.14746094 -6.8578125 -0.14257812 -6.140625 -0.44140625 C-3.62310597 -1.09835008 -2.40196658 -0.96869434 0 0 Z " fill="#D3B351" transform="translate(533,309)"/>
<path d="M0 0 C15.18 0 30.36 0 46 0 C46 2.64 46 5.28 46 8 C39.73 8 33.46 8 27 8 C27 24.17 27 40.34 27 57 C24.36 57 21.72 57 19 57 C19 40.83 19 24.66 19 8 C12.73 8 6.46 8 0 8 C0 5.36 0 2.72 0 0 Z " fill="#D6B552" transform="translate(589,753)"/>
<path d="M0 0 C2.64 0 5.28 0 8 0 C8 16.17 8 32.34 8 49 C16.91 49 25.82 49 35 49 C35 51.64 35 54.28 35 57 C23.45 57 11.9 57 0 57 C0 38.19 0 19.38 0 0 Z " fill="#D9B753" transform="translate(539,753)"/>
<path d="M0 0 C3.01125 -0.0825 6.0225 -0.165 9.125 -0.25 C10.06230957 -0.28641602 10.99961914 -0.32283203 11.96533203 -0.36035156 C17.47922855 -0.43316553 20.67167183 0.25147903 25 4 C27.68468038 8.02702057 27.68187737 11.2684363 27 16 C24.84791853 19.61242247 22.84352612 21.41618707 19 23 C16.80175781 23.22705078 16.80175781 23.22705078 14.453125 23.1953125 C13.69161133 23.19031738 12.93009766 23.18532227 12.14550781 23.18017578 C10.71223145 23.15286377 10.71223145 23.15286377 9.25 23.125 C4.67125 23.063125 4.67125 23.063125 0 23 C0 15.41 0 7.82 0 0 Z " fill="#0A0C0D" transform="translate(699,631)"/>
<path d="M0 0 C3.196875 -0.061875 6.39375 -0.12375 9.6875 -0.1875 C11.18543091 -0.22846802 11.18543091 -0.22846802 12.71362305 -0.27026367 C18.80358618 -0.32732831 22.25364787 0.44305147 26.8125 4.6875 C28.56082685 8.09213649 28.80505827 11.31136937 28 15 C25.82425584 17.69105198 24.08934144 19.45532928 21 21 C19.40552536 21.08400529 17.80759455 21.10727467 16.2109375 21.09765625 C15.36321777 21.09515869 14.51549805 21.09266113 13.64208984 21.09008789 C12.5639502 21.08098389 11.48581055 21.07187988 10.375 21.0625 C6.95125 21.041875 3.5275 21.02125 0 21 C0 14.07 0 7.14 0 0 Z " fill="#080B0D" transform="translate(131,663)"/>
<path d="M0 0 C4.99982245 7.1426035 4.89408374 14.50620446 4 23 C1.86112587 31.55549652 -5.82265292 36.79237771 -12.98046875 41.203125 C-14.7111825 42.22718506 -16.4469316 43.2427807 -18.1875 44.25 C-19.50137695 45.0234375 -19.50137695 45.0234375 -20.84179688 45.8125 C-22.50826003 46.79292108 -24.17721456 47.76912497 -25.84912109 48.74023438 C-27.57825257 49.75298335 -29.28686923 50.80071863 -30.98828125 51.859375 C-33 53 -33 53 -35 53 C-33.58214554 48.18281745 -30.70947548 45.43625157 -27.0625 42.1875 C-26.19830444 41.40246094 -26.19830444 41.40246094 -25.31665039 40.6015625 C-20.88646628 36.63928274 -16.24397853 33.08158528 -11.33984375 29.71875 C-7.83426116 27.14369768 -5.39258229 25.17774686 -4 21 C-3.42611284 13.25252332 -6.21316457 9.77721518 -11 4 C-9.73760288 3.13341385 -8.46472499 2.28207941 -7.1875 1.4375 C-6.47980469 0.96183594 -5.77210938 0.48617188 -5.04296875 -0.00390625 C-3 -1 -3 -1 0 0 Z " fill="#D6B552" transform="translate(528,352)"/>
<path d="M0 0 C3.031875 -0.061875 6.06375 -0.12375 9.1875 -0.1875 C10.60712036 -0.22846802 10.60712036 -0.22846802 12.05541992 -0.27026367 C16.84936401 -0.3175874 20.15522761 -0.20273273 24 3 C26.4915904 6.7373856 26.45793285 8.57331583 26 13 C24.20437595 15.75329021 22.94745078 17.52627461 20 19 C18.47851674 19.08372659 16.95344222 19.10730027 15.4296875 19.09765625 C14.53378906 19.09443359 13.63789063 19.09121094 12.71484375 19.08789062 C11.77769531 19.07951172 10.84054688 19.07113281 9.875 19.0625 C8.93011719 19.05798828 7.98523438 19.05347656 7.01171875 19.04882812 C4.6744523 19.03702375 2.33721831 19.01908799 0 19 C0 12.73 0 6.46 0 0 Z " fill="#0A0C0D" transform="translate(131,631)"/>
<path d="M0 0 C2.64 0 5.28 0 8 0 C8 18.81 8 37.62 8 57 C5.36 57 2.72 57 0 57 C0 38.19 0 19.38 0 0 Z " fill="#DDBA54" transform="translate(664,753)"/>
<path d="M0 0 C6.69324895 0.44841471 11.57491757 1.81279649 17.5625 4.75 C25.875596 8.64123643 34.17211125 11.49439461 43 14 C44.31906196 14.37742409 45.63807407 14.75502241 46.95703125 15.1328125 C47.96121094 15.41898438 48.96539063 15.70515625 50 16 C49.03274818 18.41812954 48.42928495 19.7400492 46.16796875 21.109375 C38.29833418 24.34230596 29.45764105 20.85219118 22 18 C13.56056589 14.32989087 5.97288945 10.06899637 -1 4 C-0.67 2.68 -0.34 1.36 0 0 Z " fill="#D6B552" transform="translate(553,215)"/>
<path d="M0 0 C0.495 1.98 0.495 1.98 1 4 C-5.10767159 8.8654333 -11.28052353 12.88701411 -18.25 16.375 C-18.91064453 16.70822266 -19.57128906 17.04144531 -20.25195312 17.38476562 C-28.02481204 21.17393709 -35.34146352 22.89705558 -44 22 C-47.6875 20.5 -47.6875 20.5 -50 19 C-50 18.01 -50 17.02 -50 16 C-46.05908444 14.27584944 -42.19896936 13.34290277 -38 12.4375 C-25.35414752 9.5133161 -12.78831781 -0.27800691 0 0 Z " fill="#D7B652" transform="translate(470,215)"/>
<path d="M0 0 C0.33 0.99 0.66 1.98 1 3 C1.66 3.33 2.32 3.66 3 4 C1.04335878 6.02652126 -0.8194054 7.87252146 -3.125 9.5 C-5.80642518 11.64514014 -6.82667254 13.80502261 -7.31884766 17.19824219 C-7.35026855 17.97329102 -7.38168945 18.74833984 -7.4140625 19.546875 C-7.45273437 20.39121094 -7.49140625 21.23554688 -7.53125 22.10546875 C-7.57765625 23.41451172 -7.57765625 23.41451172 -7.625 24.75 C-7.66367187 25.63816406 -7.70234375 26.52632813 -7.7421875 27.44140625 C-7.83620873 29.6273998 -7.92186143 31.81339062 -8 34 C-11.12006093 34.85801675 -12.91826192 35.15565178 -16 34 C-19.25237343 31.83175105 -22.23316941 29.53366118 -24 26 C-24.2734375 24.046875 -24.2734375 24.046875 -24.375 21.75 C-24.42398437 21.00234375 -24.47296875 20.2546875 -24.5234375 19.484375 C-23.54334188 14.83257786 -20.5890467 12.09286775 -16.80761719 9.4921875 C-14.29830956 7.97321196 -11.75884027 6.53626506 -9.1875 5.125 C-8.30384766 4.62742187 -7.42019531 4.12984375 -6.50976562 3.6171875 C-4.34561624 2.4005846 -2.17593934 1.19534664 0 0 Z " fill="#0D0E0F" transform="translate(523,346)"/>
<path d="M0 0 C16.83 0 33.66 0 51 0 C51 4.29 51 8.58 51 13 C39.45 13 27.9 13 16 13 C16 12.67 16 12.34 16 12 C27.22 12 38.44 12 50 12 C50 8.37 50 4.74 50 1 C34.16 1 18.32 1 2 1 C2 26.08 2 51.16 2 77 C5.96 77 9.92 77 14 77 C13.99476318 76.09644775 13.98952637 75.19289551 13.98413086 74.26196289 C13.96712314 70.92048511 13.95456667 67.57905308 13.94506836 64.23754883 C13.94002899 62.78929927 13.93319747 61.34105483 13.92456055 59.89282227 C13.91247753 57.81525412 13.90676789 55.73775303 13.90234375 53.66015625 C13.89448853 51.78275757 13.89448853 51.78275757 13.88647461 49.86743164 C14 47 14 47 15 46 C17.14558827 45.91224395 19.29404421 45.89304781 21.44140625 45.90234375 C22.74658203 45.90556641 24.05175781 45.90878906 25.39648438 45.91210938 C26.7851569 45.92046599 28.17382877 45.92893095 29.5625 45.9375 C30.95507656 45.94251334 32.34765481 45.94707653 33.74023438 45.95117188 C37.1601987 45.96300566 40.58007844 45.9794912 44 46 C44 42.37 44 38.74 44 35 C34.76 35 25.52 35 16 35 C16 34.67 16 34.34 16 34 C25.57 34 35.14 34 45 34 C45 38.29 45 42.58 45 47 C35.43 47 25.86 47 16 47 C16 57.56 16 68.12 16 79 C10.72 79 5.44 79 0 79 C0 52.93 0 26.86 0 0 Z " fill="#E6CA5B" transform="translate(531,618)"/>
<path d="M0 0 C0.86925078 0.00092179 1.73850157 0.00184359 2.63409328 0.00279331 C3.62833813 0.00141865 4.62258297 0.00004398 5.64695644 -0.00137234 C6.74674831 0.00222294 7.84654018 0.00581821 8.97965908 0.00952244 C10.70626011 0.0093034 10.70626011 0.0093034 12.46774197 0.00907993 C16.29326635 0.00977965 20.11874275 0.0175748 23.94425869 0.02539158 C26.58841837 0.02725555 29.2325784 0.02867955 31.87673855 0.0296793 C38.13825661 0.03279234 44.3997573 0.04100535 50.6612677 0.05102879 C57.78811781 0.06219078 64.91496874 0.06770059 72.04182541 0.07272422 C86.70592674 0.08318799 101.37001435 0.10078689 116.03410244 0.12304783 C116.03410244 1.11304783 116.03410244 2.10304783 116.03410244 3.12304783 C58.11910244 2.62804783 58.11910244 2.62804783 -0.96589756 2.12304783 C-0.96589756 4.10304783 -0.96589756 6.08304783 -0.96589756 8.12304783 C35.00410244 8.12304783 70.97410244 8.12304783 108.03410244 8.12304783 C108.03410244 8.45304783 108.03410244 8.78304783 108.03410244 9.12304783 C71.40410244 9.12304783 34.77410244 9.12304783 -2.96589756 9.12304783 C-2.96589756 0.185639 -2.96589756 0.185639 0 0 Z " fill="#E1BD54" transform="translate(542.9658975601196,362.8769521713257)"/>
<path d="M0 0 C2.31 1.98 4.62 3.96 7 6 C3.39672124 13.20655753 -4.53181101 19.09843953 -11.8984375 22.41796875 C-18.24722388 24.17627576 -24.98274959 23.60205423 -31 21 C-30.505 19.515 -30.505 19.515 -30 18 C-27.26171875 16.67578125 -27.26171875 16.67578125 -23.6875 15.3125 C-14.78605487 11.7441197 -6.65345904 7.0283018 0 0 Z " fill="#D7B653" transform="translate(475,222)"/>
<path d="M0 0 C2.04023181 3.06034772 3.00748797 5.64977755 4.1640625 9.12890625 C4.56367188 10.32837891 4.96328125 11.52785156 5.375 12.76367188 C5.99375 14.6440918 5.99375 14.6440918 6.625 16.5625 C7.04913402 17.83279758 7.47360946 19.10298123 7.8984375 20.37304688 C11 29.73311942 11 29.73311942 11 32 C4.07 32 -2.86 32 -10 32 C-7.75 21.875 -7.75 21.875 -6.0546875 17.08984375 C-5.70019531 16.08115234 -5.34570312 15.07246094 -4.98046875 14.03320312 C-4.43326172 12.50083008 -4.43326172 12.50083008 -3.875 10.9375 C-3.50246094 9.88111328 -3.12992187 8.82472656 -2.74609375 7.73632812 C-1.83534623 5.15587683 -0.91990295 2.57719856 0 0 Z " fill="#0C0D0E" transform="translate(291,634)"/>
<path d="M0 0 C0.44988281 0.35191406 0.89976562 0.70382813 1.36328125 1.06640625 C10.24058572 7.88004876 18.77010252 13.29259896 29.4453125 16.859375 C30.28835938 17.23578125 31.13140625 17.6121875 32 18 C32.495 19.485 32.495 19.485 33 21 C26.34486957 23.3662686 19.19998433 24.69676786 12.45703125 21.97265625 C5.82965506 18.16902699 -0.46756632 13.25896738 -6 8 C-6 6 -6 6 -3.5625 3.4375 C-2.716875 2.633125 -1.87125 1.82875 -1 1 C-0.67 0.67 -0.34 0.34 0 0 Z " fill="#D6B552" transform="translate(547,222)"/>
<path d="M0 0 C0.625 1.875 0.625 1.875 1 4 C0.34 4.66 -0.32 5.32 -1 6 C-1.27940142 8.84107133 -1.41624531 11.53159505 -1.4375 14.375 C-1.48680664 15.52742188 -1.48680664 15.52742188 -1.53710938 16.703125 C-1.55817904 18.91735509 -1.5072219 20.84305419 -1 23 C1.35096704 25.57458617 1.35096704 25.57458617 4 27 C-0.02710767 28.02508195 -2.56154141 28.62672392 -6.4296875 26.94140625 C-12.29892359 23.23705232 -15.08617473 19.90452615 -16.6875 13.0625 C-15.58062349 8.13186827 -11.99530267 5.84557528 -8 3 C-2.77419355 0 -2.77419355 0 0 0 Z " fill="#0A0B0D" transform="translate(509,311)"/>
<path d="M0 0 C7.28421548 -0.02312916 14.5684231 -0.04091801 21.85266781 -0.05181217 C25.23471813 -0.05703975 28.6167434 -0.06413511 31.9987793 -0.07543945 C35.88329777 -0.08834267 39.76780597 -0.09322924 43.65234375 -0.09765625 C44.87211411 -0.10281754 46.09188446 -0.10797882 47.34861755 -0.11329651 C49.03024742 -0.11340981 49.03024742 -0.11340981 50.74584961 -0.11352539 C51.73846298 -0.115746 52.73107635 -0.11796661 53.75376892 -0.12025452 C56 0 56 0 57 1 C57.14115161 3.67058851 57.04247107 6.32432238 57 9 C54.62446926 10.18776537 53.28678627 10.0882153 50.64208984 10.02172852 C49.74130707 10.00163223 48.84052429 9.98153595 47.91244507 9.96083069 C46.93844757 9.93379562 45.96445007 9.90676056 44.9609375 9.87890625 C43.46694931 9.84348976 43.46694931 9.84348976 41.94277954 9.80735779 C38.75337819 9.73062353 35.56421372 9.64664116 32.375 9.5625 C30.21615753 9.50928909 28.0573034 9.45654864 25.8984375 9.40429688 C20.59881093 9.27499524 15.29936109 9.1397381 10 9 C10 8.67 10 8.34 10 8 C24.85 8 39.7 8 55 8 C55 6.02 55 4.04 55 2 C37.51 2 20.02 2 2 2 C2 4.31 2 6.62 2 9 C-0.16935784 11.16935784 -5.27692199 10.18668507 -8.29321289 10.20532227 C-9.26871597 10.21522186 -10.24421906 10.22512146 -11.24928284 10.23532104 C-14.49038218 10.26703948 -17.73149622 10.29173419 -20.97265625 10.31640625 C-23.21325574 10.33696686 -25.45385127 10.35796308 -27.69444275 10.37937927 C-33.60455123 10.43469225 -39.51469525 10.4840607 -45.42486572 10.53222656 C-51.45059386 10.5823744 -57.47627012 10.63809545 -63.50195312 10.69335938 C-75.33459114 10.80105372 -87.16727412 10.90247348 -99 11 C-99.33 12.32 -99.66 13.64 -100 15 C-100.042721 13.33388095 -100.04063832 11.66617115 -100 10 C-98.06775535 8.06775535 -95.16389611 8.87981562 -92.59291077 8.87557983 C-91.67078293 8.87917511 -90.74865509 8.88277039 -89.79858398 8.88647461 C-88.34995972 8.88625557 -88.34995972 8.88625557 -86.87207031 8.8860321 C-83.66338901 8.88673166 -80.45476497 8.89452603 -77.24609375 8.90234375 C-75.02791882 8.90420778 -72.80974348 8.90563175 -70.59156799 8.90663147 C-64.74059929 8.91045784 -58.88965523 8.92028914 -53.03869629 8.93133545 C-47.07332696 8.94154701 -41.10795367 8.94612854 -35.14257812 8.95117188 C-23.42837456 8.96191131 -11.71418933 8.97898915 0 9 C0 6.03 0 3.06 0 0 Z " fill="#EBC958" transform="translate(426,363)"/>
<path d="M0 0 C9 0 9 0 11.96533203 2.90576172 C12.84568522 4.22573605 13.69176037 5.56902117 14.5078125 6.9296875 C14.96356659 7.63521759 15.41932068 8.34074768 15.8888855 9.06765747 C16.84275336 10.55638875 17.78159054 12.05484526 18.70605469 13.56201172 C20.12734228 15.87881809 21.58969105 18.16489207 23.0625 20.44921875 C23.98425871 21.89946339 24.9036169 23.35123719 25.8203125 24.8046875 C26.25658966 25.49432587 26.69286682 26.18396423 27.1423645 26.89450073 C28.15940707 28.55859285 29.08917719 30.27547689 30 32 C29.67 32.66 29.34 33.32 29 34 C25.36104564 28.89853915 21.81181385 23.76350933 18.46484375 18.46484375 C17.88283203 17.55412109 17.30082031 16.64339844 16.70117188 15.70507812 C15.50829977 13.83320684 14.32892953 11.95267364 13.16210938 10.06445312 C12.58138672 9.16533203 12.00066406 8.26621094 11.40234375 7.33984375 C10.63651978 6.12349243 10.63651978 6.12349243 9.85522461 4.88256836 C7.72292401 2.35033491 7.72292401 2.35033491 2 2 C2 19.82 2 37.64 2 56 C3.65 56 5.3 56 7 56 C7 42.47 7 28.94 7 15 C7.33 15 7.66 15 8 15 C8 28.86 8 42.72 8 57 C5.36 57 2.72 57 0 57 C0 38.19 0 19.38 0 0 Z " fill="#E6C759" transform="translate(707,753)"/>
<path d="M0 0 C2.26649624 1.5410372 4.14563311 3.21531552 6.08984375 5.1484375 C6.77304687 5.81488281 7.45625 6.48132813 8.16015625 7.16796875 C10.07418612 9.46729035 11.01053558 11.51728501 11.96484375 14.3359375 C3.53912402 14.76195704 -2.84524693 15.03703205 -10.03515625 10.3359375 C-12.03515625 8.3359375 -12.03515625 8.3359375 -12.22265625 5.9609375 C-10.52170104 2.20093124 -8.01563326 1.47760572 -4.359375 -0.16015625 C-2.03515625 -0.6640625 -2.03515625 -0.6640625 0 0 Z " fill="#D6B653" transform="translate(537.03515625,233.6640625)"/>
<path d="M0 0 C1.43931117 0.45261358 2.87638999 0.91232979 4.3125 1.375 C5.11300781 1.63023437 5.91351563 1.88546875 6.73828125 2.1484375 C9 3 9 3 12 5 C12.4375 7.4375 12.4375 7.4375 12 10 C8.91038583 13.47581594 4.45803786 14.37844664 0 15 C-4.00669798 15.15221524 -7.9928379 15.12021486 -12 15 C-10.38462556 11.10082032 -7.72075127 8.28706228 -4.875 5.25 C-4.40707031 4.74339844 -3.93914062 4.23679688 -3.45703125 3.71484375 C-2.30873459 2.47280859 -1.15491328 1.23588506 0 0 Z " fill="#D8B753" transform="translate(486,233)"/>
<path d="M0 0 C0.16677223 8.04212755 -0.3533402 15.98603754 -1 24 C-3.80106232 24.23342186 -5.67486338 24.13830855 -8.27734375 23.03125 C-10.96595751 19.86100249 -10.61870239 16.46061518 -10.5625 12.5 C-10.59827148 11.34177734 -10.59827148 11.34177734 -10.63476562 10.16015625 C-10.62890625 7.90625 -10.62890625 7.90625 -10 4 C-7.0845475 1.55509474 -3.88029141 0 0 0 Z " fill="#D3B151" transform="translate(517,313)"/>
<path d="M0 0 C2.46728516 1.60864258 2.46728516 1.60864258 5 4 C5.58349609 6.91674805 5.58349609 6.91674805 5.5234375 10.26171875 C5.51183594 11.46248047 5.50023437 12.66324219 5.48828125 13.90039062 C5.45089844 15.15013672 5.41351562 16.39988281 5.375 17.6875 C5.36082031 18.94884766 5.34664062 20.21019531 5.33203125 21.50976562 C5.18165025 30.81834975 5.18165025 30.81834975 4 32 C2.33382885 32.04063832 0.66611905 32.042721 -1 32 C-1.02465504 27.60343827 -1.04283842 23.2069128 -1.05493164 18.81030273 C-1.05997121 17.31355082 -1.06680287 15.81680384 -1.07543945 14.32006836 C-1.08752159 12.17300193 -1.09323191 10.02600038 -1.09765625 7.87890625 C-1.10289307 6.5854126 -1.10812988 5.29191895 -1.11352539 3.95922852 C-1 1 -1 1 0 0 Z " fill="#E4C458" transform="translate(510,400)"/>
<path d="M0 0 C4.875 1.875 4.875 1.875 6 3 C6.08631874 4.34267413 6.10706473 5.68974322 6.09765625 7.03515625 C6.09282227 8.24848633 6.09282227 8.24848633 6.08789062 9.48632812 C6.07951172 10.33646484 6.07113281 11.18660156 6.0625 12.0625 C6.05798828 12.91650391 6.05347656 13.77050781 6.04882812 14.65039062 C6.03700373 16.76695663 6.01906769 18.88348685 6 21 C4.125 21.625 4.125 21.625 2 22 C0 20 0 20 -0.22705078 17.93701172 C-0.21657715 17.10959473 -0.20610352 16.28217773 -0.1953125 15.4296875 C-0.18886719 14.53378906 -0.18242187 13.63789063 -0.17578125 12.71484375 C-0.15902344 11.77769531 -0.14226562 10.84054687 -0.125 9.875 C-0.11597656 8.93011719 -0.10695313 7.98523438 -0.09765625 7.01171875 C-0.07404522 4.67422708 -0.04111516 2.33723877 0 0 Z " fill="#E3C557" transform="translate(509,359)"/>
<path d="M0 0 C11.88 0 23.76 0 36 0 C36 4.62 36 9.24 36 14 C11.25 13.505 11.25 13.505 -14 13 C-14 12.67 -14 12.34 -14 12 C1.84 12 17.68 12 34 12 C34 8.37 34 4.74 34 1 C22.78 1 11.56 1 0 1 C0 0.67 0 0.34 0 0 Z " fill="#E1C458" transform="translate(206,683)"/>
<path d="M0 0 C0.66 0 1.32 0 2 0 C2 14.19 2 28.38 2 43 C-0.8290723 40.1709277 -1.37611108 39.61855575 -2 36 C-1.67 36 -1.34 36 -1 36 C-0.67 24.12 -0.34 12.24 0 0 Z " fill="#241F13" transform="translate(742,753)"/>
<path d="M0 0 C1.65 0 3.3 0 5 0 C5.33 19.47 5.66 38.94 6 59 C7.65 59.66 9.3 60.32 11 61 C8 63 8 63 5 63 C3.94053436 59.82160309 3.87935704 57.58154652 3.88647461 54.2434082 C3.88655014 53.06241043 3.88662567 51.88141266 3.88670349 50.66462708 C3.89186478 49.38955795 3.89702606 48.11448883 3.90234375 46.80078125 C3.9037587 45.49545944 3.90517365 44.19013763 3.90663147 42.84526062 C3.9104462 39.37810344 3.92026756 35.91098826 3.93133545 32.44384766 C3.94157202 28.90462818 3.9461339 25.3654019 3.95117188 21.82617188 C3.96189077 14.88409735 3.97895466 7.94205069 4 1 C2.68 0.67 1.36 0.34 0 0 Z " fill="#010204" transform="translate(502,231)"/>
<path d="M0 0 C4.29 0 8.58 0 13 0 C12.67 0.66 12.34 1.32 12 2 C8.7 2 5.4 2 2 2 C2 3.32 2 4.64 2 6 C7.61 6 13.22 6 19 6 C19 6.66 19 7.32 19 8 C12.73 8 6.46 8 0 8 C0 5.36 0 2.72 0 0 Z " fill="#D6B652" transform="translate(589,753)"/>
<path d="M0 0 C0.33 0 0.66 0 1 0 C1 8.91 1 17.82 1 27 C0.34 27.33 -0.32 27.66 -1 28 C-1.66 27.67 -2.32 27.34 -3 27 C-2.89000392 23.24940197 -2.75940131 19.49979656 -2.625 15.75 C-2.5940625 14.68652344 -2.563125 13.62304688 -2.53125 12.52734375 C-2.49257813 11.50253906 -2.45390625 10.47773438 -2.4140625 9.421875 C-2.3826416 8.47924805 -2.3512207 7.53662109 -2.31884766 6.56542969 C-1.99399023 3.95164571 -1.32323838 2.25646966 0 0 Z " fill="#BE9F4B" transform="translate(514,404)"/>
<path d="M0 0 C0.33 0 0.66 0 1 0 C1.33 6.27 1.66 12.54 2 19 C2.99 19 3.98 19 5 19 C3.02 20.65 1.04 22.3 -1 24 C-2.32 23.01 -3.64 22.02 -5 21 C-5 21.99 -5 22.98 -5 24 C-6.32 24.33 -7.64 24.66 -9 25 C-8.7525 24.4225 -8.505 23.845 -8.25 23.25 C-8.1675 22.5075 -8.085 21.765 -8 21 C-9.85432087 18.72855926 -9.85432087 18.72855926 -12 17 C-11.67 16.34 -11.34 15.68 -11 15 C-9.9171875 15.99 -9.9171875 15.99 -8.8125 17 C-5.89605547 19.48293649 -5.89605547 19.48293649 -1 19 C-0.67 12.73 -0.34 6.46 0 0 Z " fill="#030306" transform="translate(515,361)"/>
<path d="M0 0 C3.96 0.33 7.92 0.66 12 1 C12 1.33 12 1.66 12 2 C8.7 2 5.4 2 2 2 C2 8.27 2 14.54 2 21 C2.99 21.33 3.98 21.66 5 22 C5 22.33 5 22.66 5 23 C3.35 23 1.7 23 0 23 C0 15.41 0 7.82 0 0 Z " fill="#18150F" transform="translate(699,631)"/>
<path d="M0 0 C0.99 0.33 1.98 0.66 3 1 C3.33 7.27 3.66 13.54 4 20 C2.68 19.67 1.36 19.34 0 19 C-1.66413655 15.6717269 -0.81867406 12.00266027 -0.5625 8.375 C-0.51029297 7.57320313 -0.45808594 6.77140625 -0.40429688 5.9453125 C-0.27451629 3.96320897 -0.13790265 1.98155501 0 0 Z " fill="#CAA94D" transform="translate(510,361)"/>
<path d="M0 0 C0.33 0 0.66 0 1 0 C1.19583915 4.14548415 1.38027842 8.2913967 1.5625 12.4375 C1.61857422 13.62150391 1.67464844 14.80550781 1.73242188 16.02539062 C1.78076172 17.15009766 1.82910156 18.27480469 1.87890625 19.43359375 C1.9260376 20.47572021 1.97316895 21.51784668 2.02172852 22.59155273 C2 25 2 25 1 26 C-1.35313555 26.07271741 -3.70833668 26.08370868 -6.0625 26.0625 C-7.35285156 26.05347656 -8.64320313 26.04445313 -9.97265625 26.03515625 C-10.97167969 26.02355469 -11.97070312 26.01195312 -13 26 C-12.67 25.34 -12.34 24.68 -12 24 C-8.04 24 -4.08 24 0 24 C0 16.08 0 8.16 0 0 Z " fill="#211C12" transform="translate(440,673)"/>
<path d="M0 0 C3.39417765 3.12621626 5.6062718 5.56541027 7 10 C3.84669446 9.39305845 1.81111133 8.3583335 -0.75 6.4375 C-1.36359375 5.98246094 -1.9771875 5.52742188 -2.609375 5.05859375 C-3.06828125 4.70925781 -3.5271875 4.35992187 -4 4 C-2.68 2.68 -1.36 1.36 0 0 Z " fill="#DEC056" transform="translate(522,393)"/>
<path d="M0 0 C2.56529454 1.28264727 2.66499863 2.22772349 3.625 4.875 C3.88539063 5.57367187 4.14578125 6.27234375 4.4140625 6.9921875 C5 9 5 9 5 12 C-0.28 12 -5.56 12 -11 12 C-11 11.34 -11 10.68 -11 10 C-6.38 10 -1.76 10 3 10 C2.01 6.7 1.02 3.4 0 0 Z " fill="#E8C959" transform="translate(324,685)"/>
<path d="M0 0 C0.66 0.33 1.32 0.66 2 1 C2.33 2.65 2.66 4.3 3 6 C-3.93 6 -10.86 6 -18 6 C-17.67 5.34 -17.34 4.68 -17 4 C-8.585 3.505 -8.585 3.505 0 3 C0 2.01 0 1.02 0 0 Z " fill="#040309" transform="translate(299,660)"/>
<path d="M0 0 C3.53677664 -0.32152515 5.3962104 -0.4131192 8.375 1.625 C10.45245486 4.66128018 10.54896129 6.39254006 10 10 C9.01 10.66 8.02 11.32 7 12 C7 9.36 7 6.72 7 4 C7 7 7 7 6 9 C5.34 9 4.68 9 4 9 C3.67 8.01 3.34 7.02 3 6 C2.01 5.34 1.02 4.68 0 4 C1.32 3.34 2.64 2.68 4 2 C2.68 1.34 1.36 0.68 0 0 Z " fill="#E1C257" transform="translate(486,260)"/>
<path d="M0 0 C0.99 0 1.98 0 3 0 C3.06058594 1.12019531 3.12117188 2.24039062 3.18359375 3.39453125 C3.26801424 4.86719984 3.35266149 6.33985544 3.4375 7.8125 C3.47681641 8.55048828 3.51613281 9.28847656 3.55664062 10.04882812 C3.74381035 13.23071342 3.98720793 15.96162378 5 19 C2.525 18.01 2.525 18.01 0 17 C0 11.39 0 5.78 0 0 Z " fill="#BEA14B" transform="translate(507,317)"/>
<path d="M0 0 C0.33 0 0.66 0 1 0 C1.33 6.6 1.66 13.2 2 20 C1.01 20 0.02 20 -1 20 C-3.42945561 16.35581659 -3.0828781 15.07076636 -2.625 10.8125 C-2.51414062 9.72582031 -2.40328125 8.63914062 -2.2890625 7.51953125 C-2.19367188 6.68808594 -2.09828125 5.85664063 -2 5 C-1.67 5 -1.34 5 -1 5 C-0.67 3.35 -0.34 1.7 0 0 Z " fill="#211E16" transform="translate(508,360)"/>
<path d="M0 0 C0.16677223 8.04212755 -0.3533402 15.98603754 -1 24 C-1.99 23.67 -2.98 23.34 -4 23 C-3.34 23 -2.68 23 -2 23 C-2 16.07 -2 9.14 -2 2 C-3.32 2.33 -4.64 2.66 -6 3 C-4.60722783 0.21445565 -3.01148006 0 0 0 Z " fill="#EECF5B" transform="translate(517,313)"/>
<path d="M0 0 C2.71631546 0.90543849 5.34771188 1.92474806 8 3 C5 4 5 4 3 4 C2.67 8.95 2.34 13.9 2 19 C1.67 19 1.34 19 1 19 C1 14.05 1 9.1 1 4 C0.34 4 -0.32 4 -1 4 C-0.67 2.68 -0.34 1.36 0 0 Z " fill="#030306" transform="translate(506,356)"/>
<path d="M0 0 C0.66 0.33 1.32 0.66 2 1 C2.125 6.75 2.125 6.75 1 9 C-1.49361571 7.79618552 -3.68143083 6.54571278 -6 5 C-5.67 4.01 -5.34 3.02 -5 2 C-4.01 2.33 -3.02 2.66 -2 3 C-2 3.99 -2 4.98 -2 6 C-1.34 5.34 -0.68 4.68 0 4 C-0.33 3.34 -0.66 2.68 -1 2 C-0.67 1.34 -0.34 0.68 0 0 Z " fill="#866F34" transform="translate(492,263)"/>
<path d="M0 0 C3.58108497 0.39789833 4.98712724 1.95988964 7.36328125 4.5234375 C10.79434537 7.61876504 14.99298442 9.73584168 19 12 C18.01 12.33 17.02 12.66 16 13 C13.4765625 11.70703125 13.4765625 11.70703125 10.625 9.8125 C9.68914063 9.20019531 8.75328125 8.58789062 7.7890625 7.95703125 C5.0890374 6.06247582 2.47914968 4.17714417 0 2 C0 1.34 0 0.68 0 0 Z " fill="#E2C559" transform="translate(552,217)"/>
<path d="M0 0 C2.125 0.375 2.125 0.375 4 1 C3.34 1 2.68 1 2 1 C2.42152344 1.4846875 2.84304688 1.969375 3.27734375 2.46875 C7.29937137 7.38981909 8.77284549 10.6396736 9 17 C7.85132285 14.70264569 6.756794 12.42846589 5.75 10.0625 C3.61807261 6.33162707 1.40685258 4.57406639 -2 2 C-1.34 1.34 -0.68 0.68 0 0 Z " fill="#E7C759" transform="translate(523,310)"/>
<path d="M0 0 C0.66 0.33 1.32 0.66 2 1 C-0.62042843 2.67394001 -3.24705905 4.3378835 -5.875 6 C-6.62136719 6.47695313 -7.36773437 6.95390625 -8.13671875 7.4453125 C-8.85214844 7.89648438 -9.56757813 8.34765625 -10.3046875 8.8125 C-11.2944458 9.44091797 -11.2944458 9.44091797 -12.30419922 10.08203125 C-14 11 -14 11 -16 11 C-15.67 10.01 -15.34 9.02 -15 8 C-13.35789025 7.2749498 -11.68551429 6.61746563 -10 6 C-7.36272795 4.43819721 -4.78825457 2.79697856 -2.20703125 1.14453125 C-1.47871094 0.76683594 -0.75039063 0.38914062 0 0 Z " fill="#E5C85A" transform="translate(509,394)"/>
<path d="M0 0 C0.66 0.33 1.32 0.66 2 1 C-1.77339973 5.95258714 -5.90789714 9.43679155 -11 13 C-9.46356148 9.31930113 -7.21849055 7.01224796 -4.375 4.25 C-3.55773437 3.45078125 -2.74046875 2.6515625 -1.8984375 1.828125 C-0.95871094 0.92320312 -0.95871094 0.92320312 0 0 Z " fill="#E9C858" transform="translate(469,514)"/>
<path d="M0 0 C0.33 0 0.66 0 1 0 C1 4.62 1 9.24 1 14 C0.01 14.33 -0.98 14.66 -2 15 C-1.85816304 13.24967156 -1.71136571 11.49974466 -1.5625 9.75 C-1.48128906 8.77546875 -1.40007812 7.8009375 -1.31640625 6.796875 C-1.04925416 4.43538247 -0.64628032 2.28098935 0 0 Z " fill="#121210" transform="translate(454,464)"/>
<path d="M0 0 C0.99 0.495 0.99 0.495 2 1 C2.35437205 3.29220405 2.44336611 5.55538982 2.55859375 7.87109375 C2.82049547 10.38740702 2.82049547 10.38740702 6 12 C4.33388095 12.042721 2.66617115 12.04063832 1 12 C0 11 0 11 -0.09765625 8.49609375 C-0.08605469 7.48675781 -0.07445312 6.47742188 -0.0625 5.4375 C-0.05347656 4.42558594 -0.04445313 3.41367187 -0.03515625 2.37109375 C-0.02355469 1.58863281 -0.01195312 0.80617188 0 0 Z " fill="#E2C056" transform="translate(507,279)"/>
<path d="M0 0 C2.31 0.66 4.62 1.32 7 2 C5.875 3.5 5.875 3.5 4 5 C0.8125 5.1875 0.8125 5.1875 -2 5 C-1.34 3.35 -0.68 1.7 0 0 Z " fill="#DCBB55" transform="translate(486,270)"/>
<path d="M0 0 C8.44646925 6.15034169 8.44646925 6.15034169 12 10 C7.6627107 9.49954354 5.22017653 6.74057577 2 4 C1.01 3.67 0.02 3.34 -1 3 C-0.67 2.01 -0.34 1.02 0 0 Z " fill="#DBBE55" transform="translate(547,222)"/>
<path d="M0 0 C0.99 0 1.98 0 3 0 C3 2.64 3 5.28 3 8 C2.01 8.33 1.02 8.66 0 9 C0 6.03 0 3.06 0 0 Z " fill="#C4A54C" transform="translate(435,790)"/>
<path d="M0 0 C2.94982021 1.14186589 4.88437775 2.67281553 7 5 C4 6 4 6 1 5 C-0.6875 2.9375 -0.6875 2.9375 -2 1 C-1.34 0.67 -0.68 0.34 0 0 Z " fill="#151411" transform="translate(448,232)"/>
<path d="M0 0 C0.99 0.33 1.98 0.66 3 1 C2.34 1 1.68 1 1 1 C1.33 1.99 1.66 2.98 2 4 C1.67 4.66 1.34 5.32 1 6 C-0.32 5.34 -1.64 4.68 -3 4 C-2.67 3.01 -2.34 2.02 -2 1 C-1.34 0.67 -0.68 0.34 0 0 Z " fill="#06070A" transform="translate(520,348)"/>
<path d="M0 0 C2.4375 0.375 2.4375 0.375 5 1 C5.33 1.66 5.66 2.32 6 3 C5.67 3.99 5.34 4.98 5 6 C2.83852297 4.91926148 1.58960328 3.80636736 0 2 C0 1.34 0 0.68 0 0 Z " fill="#CDAB4E" transform="translate(530,269)"/>
<path d="M0 0 C0.99 0.33 1.98 0.66 3 1 C3 3.64 3 6.28 3 9 C2.34 8.67 1.68 8.34 1 8 C0.40644386 5.35139573 0.25790731 2.70802678 0 0 Z " fill="#E1BE56" transform="translate(480,363)"/>
<path d="M0 0 C0.99 0.33 1.98 0.66 3 1 C2.34 2.32 1.68 3.64 1 5 C-0.32 4.67 -1.64 4.34 -3 4 C-2.67 3.01 -2.34 2.02 -2 1 C-1.34 0.67 -0.68 0.34 0 0 Z " fill="#DDC057" transform="translate(447,239)"/>
</svg>
